<svg id="Layer_1" data-name="Layer 1" xmlns="http://www.w3.org/2000/svg" viewBox="0 0 137.25 102.94"><defs><style>.cls-1{opacity:0.1;}.cls-2{fill:#f6c5b4;}.cls-3{fill:#5bcbf5;}.cls-4{fill:#474747;}.cls-16,.cls-5,.cls-6,.cls-7{fill:none;stroke-miterlimit:10;}.cls-5,.cls-6,.cls-7{stroke:#474747;}.cls-5{stroke-width:0.81px;}.cls-6{stroke-width:0.48px;}.cls-7{stroke-width:0.65px;}.cls-8{fill:#f3c943;}.cls-9{fill:#f5dd5f;}.cls-10{fill:#cf8407;}.cls-11{fill:#eae44e;}.cls-12{fill:#d08a0e;}.cls-13{opacity:0.5;}.cls-14{fill:#fff;}.cls-15{fill:#4f4f4f;}.cls-16{stroke:#86513f;stroke-linecap:round;stroke-width:0.57px;}.cls-17{fill:#86513f;}</style></defs><title>app_logo</title><path d="M75,60.86a4.38,4.38,0,0,0-2.4.67,4.44,4.44,0,0,0-1.64,1.86,6.22,6.22,0,0,0-.58,2.7v.23a5.6,5.6,0,0,0,1.29,3.85A4.3,4.3,0,0,0,75,71.62,4.53,4.53,0,0,0,77.4,71,4.35,4.35,0,0,0,79,69.11a6.09,6.09,0,0,0,.58-2.71v-.24a5.6,5.6,0,0,0-1.28-3.84A4.28,4.28,0,0,0,75,60.86Zm3.5,5.45a4.89,4.89,0,0,1-1,3.15,3.26,3.26,0,0,1-5,0,4.75,4.75,0,0,1-1-3.06v-.21a4.93,4.93,0,0,1,1-3.15,3.07,3.07,0,0,1,2.5-1.2,3.15,3.15,0,0,1,1.82.54A3.44,3.44,0,0,1,78,63.91a5.18,5.18,0,0,1,.44,2.18Zm-11.54.08a10.16,10.16,0,0,0-2.26-.75,6.25,6.25,0,0,1-2.09-.78A1.43,1.43,0,0,1,62,63.65a1.57,1.57,0,0,1,.69-1.31,3.46,3.46,0,0,1,3.74.1A1.87,1.87,0,0,1,67.2,64h1.15a2.75,2.75,0,0,0-1-2.24,4.28,4.28,0,0,0-2.78-.86,4.16,4.16,0,0,0-2.63.8,2.49,2.49,0,0,0-1,2A2.33,2.33,0,0,0,61.23,65a2.88,2.88,0,0,0,1.13.93,9.84,9.84,0,0,0,2.15.67,5.07,5.07,0,0,1,2.06.81,1.62,1.62,0,0,1,.69,1.37,1.58,1.58,0,0,1-.74,1.33,3.28,3.28,0,0,1-1.94.53,3.49,3.49,0,0,1-2.06-.56,2,2,0,0,1-.85-1.57H60.52a2.67,2.67,0,0,0,1.13,2.22,4.6,4.6,0,0,0,2.93.88,4.5,4.5,0,0,0,2.77-.79,2.49,2.49,0,0,0,1.06-2.1A2.44,2.44,0,0,0,68,67.36,2.89,2.89,0,0,0,66.93,66.39Zm16.68-9a3.43,3.43,0,0,0-.81,2.45v1.25H81.09V62H82.8v9.44H84V62h2.47v-.94H84V59.77a2.43,2.43,0,0,1,.52-1.68A1.9,1.9,0,0,1,86,57.5a4.88,4.88,0,0,1,1,.11l.09-1a4.73,4.73,0,0,0-1.22-.16A3,3,0,0,0,83.61,57.35Zm37.63,5.35,0-1.65H120.1V71.43h1.14V64.3a3.25,3.25,0,0,1,1.06-1.74,2.87,2.87,0,0,1,1.82-.6,4.69,4.69,0,0,1,.77.07l0-1a1.74,1.74,0,0,0-.75-.13A3.06,3.06,0,0,0,121.24,62.7Zm13.19,3.62v-.65a5.23,5.23,0,0,0-1.11-3.52,3.73,3.73,0,0,0-3-1.29,4,4,0,0,0-2.25.69,4.63,4.63,0,0,0-1.61,1.88,6.08,6.08,0,0,0-.58,2.7v.41a5.76,5.76,0,0,0,.59,2.61A4.45,4.45,0,0,0,128.15,71a4.53,4.53,0,0,0,2.39.65,4.18,4.18,0,0,0,3.67-1.83l-.72-.55a3.54,3.54,0,0,1-1.28,1.07,3.64,3.64,0,0,1-1.62.34A3.23,3.23,0,0,1,128,69.48a4.39,4.39,0,0,1-1-2.94v-.22Zm-6.28-3.53a2.86,2.86,0,0,1,2.18-.95,2.64,2.64,0,0,1,2.11.94,3.84,3.84,0,0,1,.85,2.43v.13h-6.22A4.39,4.39,0,0,1,128.15,62.79ZM117,64.15a3.12,3.12,0,0,0-1-2.42,4,4,0,0,0-2.73-.87,4.44,4.44,0,0,0-2.83.91,2.65,2.65,0,0,0-1.15,2.14h1.15a1.84,1.84,0,0,1,.78-1.48,3.21,3.21,0,0,1,2-.61,2.83,2.83,0,0,1,2,.64,2.29,2.29,0,0,1,.68,1.75V65.4h-2.08a6,6,0,0,0-3.51.88,2.78,2.78,0,0,0-1.26,2.39,2.71,2.71,0,0,0,.92,2.11,3.48,3.48,0,0,0,2.42.84,4.61,4.61,0,0,0,2-.43A3.93,3.93,0,0,0,115.91,70a5.6,5.6,0,0,0,.22,1.45h1.23v-.12a6.09,6.09,0,0,1-.32-2.25Zm-1.14,4.41a3.27,3.27,0,0,1-1.32,1.49,3.84,3.84,0,0,1-2,.55,2.44,2.44,0,0,1-1.68-.57,1.85,1.85,0,0,1-.65-1.45,1.87,1.87,0,0,1,1-1.67,5.05,5.05,0,0,1,2.68-.63h2.05ZM104.09,69l-.22,1-.27-1.1-2.46-7.87h-1L97.67,69l-.23.94L97.27,69l-2.2-8H93.89l3,10.38h1l2.62-8.22.12-.57.13.56,2.66,8.23h1l3-10.38h-1.19ZM91.61,70.62a1.22,1.22,0,0,1-1-.42,2.23,2.23,0,0,1-.31-1.29V62h2.15v-.94H90.26V58.4H89.11v2.65H87.2V62h1.91v6.92a3.2,3.2,0,0,0,.54,2,2,2,0,0,0,1.71.69,4,4,0,0,0,1.23-.16l0-.93A7.48,7.48,0,0,1,91.61,70.62Z"/><path d="M126.74,31.23H122l-9.18,24.66h5.41L120,50.81h8.91l1.71,5.08H136Zm-5.42,15.46,3.07-9.23,3.09,9.23Zm-15.16-14a11.49,11.49,0,0,0-5.82-1.47H92.75V55.89h7.64a11.62,11.62,0,0,0,5.81-1.49,10.29,10.29,0,0,0,4-4.15,12.94,12.94,0,0,0,1.41-6.12V43a12.85,12.85,0,0,0-1.44-6.14A10.16,10.16,0,0,0,106.16,32.7Zm.29,11.59a8.8,8.8,0,0,1-1.61,5.57,5.49,5.49,0,0,1-4.55,1.94H97.83V35.35h2.51a5.48,5.48,0,0,1,4.55,1.93,9,9,0,0,1,1.56,5.7ZM74.75,43.2a5.36,5.36,0,0,0,2.59-2A5.59,5.59,0,0,0,78.27,38,5.88,5.88,0,0,0,76,33q-2.33-1.73-6.81-1.72H60.51V55.89H70.1A10.22,10.22,0,0,0,76.56,54a6.48,6.48,0,0,0,2.27-5.38,5.64,5.64,0,0,0-1.09-3.52A5.22,5.22,0,0,0,74.75,43.2Zm-9.16-7.85h3.56a5.12,5.12,0,0,1,3.07.73,2.84,2.84,0,0,1,1,2.42q0,3-3.84,3.06H65.59ZM72.75,51a4.23,4.23,0,0,1-2.81.85H65.59V45.15h4.66q3.5,0,3.5,3.44A2.93,2.93,0,0,1,72.75,51ZM83,55.89h5.09V31.23H83Z"/><path id="shadow" class="cls-1" d="M40.66,78.62c-2.7,1.67-5.75,2.59-9,1.42a22.5,22.5,0,0,1-4-2c-1.41,0-2.88,0-4.37,0-1.86,0-3.66,0-5.39,0l-.57.46c-2.5,1.85-4.74,2.12-7.49.21l-.47-.35c-5.31.32-8.72.81-8.72,1.37,0,1,10.14,1.73,22.64,1.73s22.63-.78,22.63-1.73C45.93,79.31,44,78.92,40.66,78.62Z"/><path class="cls-2" d="M32.3,72.79c-4-2.73-3.81-5.22-3.55-6.24a13.76,13.76,0,0,1-4.16-1c-2.21-.76-5.82-1.69-8.41,2.61-1.51,2.51-2.26,4.18-4.17,4.47-.88.14-1.45-.17-3.26-1.15s-3.21.72-2.62,2.45a10.35,10.35,0,0,0,3.72,4.82c2.75,1.91,5,1.64,7.49-.21,1.63-1.22,3.1-3,5.12-3,2.35-.07,5.58,3.26,9.19,4.55s7,0,9.86-2a11,11,0,0,0,3.78-5.7,5,5,0,0,1-.44.48C42.37,75.22,36.71,75.78,32.3,72.79Zm20-34.65c-2.54-7.76-11.8-10.34-17.62-8.78a11.18,11.18,0,0,0-7.33,6.14,16.46,16.46,0,0,0-1,8.56A36.7,36.7,0,0,0,28,51.89a46.33,46.33,0,0,1,1.71,6.22l0,0a13.67,13.67,0,0,0,8,3.29c4,.23,7.5-2.46,7.24-4.58v0c-.41-1.27-.85-2.63-1.32-4.45C48.57,51.13,54.78,45.77,52.29,38.14Z"/><path class="cls-3" d="M45,56.82v0c.26,2.12-3.2,4.81-7.24,4.58a13.67,13.67,0,0,1-8-3.29l0,0a27.17,27.17,0,0,1,.5,3.69c.11,2.29-1.19,3.69-1.43,4.5s-.94,3.5,3.48,6.49,10.07,2.43,12.55.06c2-1.91,2.41-4.9,1.72-9.54A35.43,35.43,0,0,0,45,56.82Z"/><ellipse class="cls-4" cx="42.42" cy="62.82" rx="1.1" ry="1.29" transform="translate(-17.5 16.39) rotate(-18.2)"/><path class="cls-4" d="M42.92,63.67l2.56,4.84a6.14,6.14,0,0,1-1.37,3.84c-.44-.5-2.2-3.07-2.2-3.07.62-1.07.89-3,.69-5.5Z"/><path class="cls-1" d="M46.57,63.31c-.7-4.74-1.72-6.36-2.9-10.94.28-.07.57-.16.86-.26L44,51.83c-1.94.73-3.83,1.38-7.9.11,2.67,2.53,5.8,5.28,6.87,12.93s-.8,11.56-3.34,14.23l.11.06a17.33,17.33,0,0,0,1.78-1.09,11,11,0,0,0,3.78-5.7C46.91,70.45,47.21,67.58,46.57,63.31Z"/><path class="cls-1" d="M23.05,75.43a5.08,5.08,0,0,0-5.09,0C15,76.89,15.62,78.77,10.61,79v.21c2.41,1.37,4.46,1,6.73-.69,1.63-1.22,3.1-3,5.12-3a2.77,2.77,0,0,1,.63.05Z"/><path class="cls-5" d="M43.67,52.37c1.18,4.58,2.2,6.2,2.9,10.94s.28,7.63-1.72,9.54c-2.48,2.37-8.14,2.93-12.55-.06s-3.72-5.68-3.48-6.49,1.54-2.21,1.43-4.5A38.68,38.68,0,0,0,28,51.89a36.7,36.7,0,0,1-1.66-7.83,16.46,16.46,0,0,1,1-8.56,11.18,11.18,0,0,1,7.33-6.14c5.82-1.56,15.08,1,17.62,8.78S48.57,51.13,43.67,52.37Z"/><path class="cls-5" d="M44.85,72.85c-2.48,2.37-8.14,2.93-12.55-.06-4-2.73-3.81-5.22-3.55-6.24a13.76,13.76,0,0,1-4.16-1c-2.21-.76-5.82-1.69-8.41,2.61-1.51,2.51-2.26,4.18-4.17,4.47-.88.14-1.45-.17-3.26-1.15s-3.21.72-2.62,2.45a10.35,10.35,0,0,0,3.72,4.82c2.75,1.91,5,1.64,7.49-.21,1.63-1.22,3.1-3,5.12-3,2.35-.07,5.58,3.26,9.19,4.55s7,0,9.86-2a11,11,0,0,0,3.78-5.7A5,5,0,0,1,44.85,72.85Z"/><path class="cls-6" d="M8.46,77.53a4.34,4.34,0,0,1,.35-3.36,4.38,4.38,0,0,1,2-1.71"/><path class="cls-6" d="M9.76,72a4.29,4.29,0,0,0-2.08,1.88,4.55,4.55,0,0,0-.23,2.51"/><path class="cls-7" d="M29.78,58.13a13.67,13.67,0,0,0,8,3.29c4,.23,7.5-2.46,7.24-4.58"/><path class="cls-8" d="M49.2,33.29c.55-.24,3.68-1.61,4.29-1.94a1.14,1.14,0,0,0,.64-.84l0-.89c-.44-.69-.89-.73-1.78-.77s-3.63,0-3.63,0a9.94,9.94,0,0,0-3.1-4.63c-2-1.55-2.7-1.19-3.17-1.51a5.85,5.85,0,0,0-4-1.28,27.76,27.76,0,0,0-5.31.63,3.54,3.54,0,0,0-2.35,1.58c-1.74,1-2.75,1.2-4.87,5.05-1.8,3.27-.32,8.08-.14,9,0,.93,0,1.41.55,1.9,1-1.48,2.81-3.76,7.41-5.32C37.75,32.93,44.43,32.1,49.2,33.29Z"/><path class="cls-9" d="M40.46,22a9.08,9.08,0,0,1,5.25,7.73l-5.66,1.24s-.67-4.17-2.61-5.82-2.1-2.31-4.48-2.62l3.3-.91Z"/><path class="cls-10" d="M33,22.48c.94-.24,3.09-.12,5.14,2.73a11.2,11.2,0,0,1,2.33,5.36l-.87.21A11.52,11.52,0,0,0,37,25.21C35.41,23.14,34.41,23,33.33,23a4.54,4.54,0,0,0-2.25,1S31.1,22.93,33,22.48Z"/><path class="cls-11" d="M54.1,29.63a3.89,3.89,0,0,0-1.89-.49c-.42,0-1.92.06-3.82.15a44.26,44.26,0,0,0-5.69.61,29.69,29.69,0,0,0-8.81,3l.22,1,3.82-.76,6.47-.56,5,.62L54,30.89Z"/><path class="cls-12" d="M53.78,30.68c0-.27-.12-.59-1.25-.59a53.17,53.17,0,0,0-11.18,1.16,22.54,22.54,0,0,0-7.2,2.69s8-2.32,15.09-.65l4.26-1.91A2.94,2.94,0,0,0,53.78,30.68Z"/><path class="cls-5" d="M49.2,33.29c.55-.24,3.68-1.61,4.29-1.94a1.14,1.14,0,0,0,.64-.84,8.56,8.56,0,0,0,0-.89c-.05-.58-.89-.73-1.78-.77s-3.63,0-3.63,0a9.94,9.94,0,0,0-3.1-4.63c-2-1.55-2.7-1.19-3.17-1.51a5.85,5.85,0,0,0-4-1.28,27.76,27.76,0,0,0-5.31.63,3.54,3.54,0,0,0-2.35,1.58c-1.74,1-2.75,1.2-4.87,5.05-1.8,3.27-.32,8.08-.14,9,0,.93,0,1.41.55,1.9,1-1.48,2.81-3.76,7.41-5.32C37.75,32.93,44.43,32.1,49.2,33.29Z"/><g class="cls-13"><ellipse class="cls-14" cx="28.79" cy="39.14" rx="1.44" ry="0.52" transform="translate(-15.3 59.55) rotate(-78.5)"/><ellipse class="cls-14" cx="28.44" cy="42.1" rx="0.27" ry="0.86" transform="translate(-4.82 3.69) rotate(-6.85)"/><ellipse class="cls-14" cx="31.06" cy="57.19" rx="0.2" ry="0.7" transform="matrix(0.95, -0.33, 0.33, 0.95, -16.99, 13.3)"/><ellipse class="cls-14" cx="21.72" cy="66.53" rx="0.52" ry="1.26" transform="translate(-47.59 76.23) rotate(-79.88)"/><ellipse class="cls-14" cx="19.03" cy="67.07" rx="0.96" ry="0.33" transform="translate(-40.27 30.42) rotate(-42.44)"/><ellipse class="cls-14" cx="35.31" cy="78.84" rx="1.34" ry="0.54"/></g><ellipse class="cls-14" cx="40.18" cy="39.83" rx="4.22" ry="4.11"/><ellipse class="cls-15" cx="39.08" cy="39.53" rx="1.03" ry="1.95" transform="translate(-5.27 6.02) rotate(-8.25)"/><ellipse class="cls-14" cx="47.63" cy="38.15" rx="3.41" ry="3.83" transform="translate(-9.16 15.82) rotate(-17.23)"/><ellipse class="cls-15" cx="46.98" cy="38.19" rx="1.03" ry="1.9" transform="translate(-4.99 7.13) rotate(-8.25)"/><path class="cls-16" d="M49.69,44.69c-1.58,1.21-4.41,3.88-11.84,1.54"/><path class="cls-16" d="M37,45.2a1.14,1.14,0,0,1,.78,1,1.21,1.21,0,0,1-.83,1"/><path class="cls-17" d="M38.25,34.61c-1.7.62-2.43,1.08-3,2.54,0,0-.57-1.89.29-2.48S38.25,34.61,38.25,34.61Z"/><path class="cls-17" d="M51.64,34A3.46,3.46,0,0,0,48.3,32.3s1.45-1.16,2.42-.57S51.64,34,51.64,34Z"/></svg>