<svg id="Layer_1" data-name="Layer 1" xmlns="http://www.w3.org/2000/svg" viewBox="0 0 512 512"><defs><style>.cls-1{fill:#fff;}</style></defs><title>plants</title><path id="Plant" class="cls-1" d="M254.46,272.52c26.85,0,48.69-20.3,48.69-45.26,0-19.28-31.51-59.69-48.69-79.52-17.17,19.83-48.68,60.24-48.68,79.52C205.78,252.22,227.62,272.52,254.46,272.52Zm60.35-57.1a41.72,41.72,0,0,1,2,11.84,55.93,55.93,0,0,1-8.71,29.54c45.4,12.49,76.22,35.57,79.21,60.41a32.81,32.81,0,0,1,0,7.86,6.85,6.85,0,0,1-6.79,6,7.37,7.37,0,0,1-.82-.05,6.86,6.86,0,0,1-6-7.61,18.63,18.63,0,0,0,0-4.6c-2.35-19.6-33-40-74.8-50.37a64,64,0,0,1-44.49,17.73c-34.4,0-62.39-26.43-62.39-58.95A41.72,41.72,0,0,1,194,215.93c-92.65,13.66-158.77,57-158.77,105.12,0,60.49,99,109.7,220.79,109.7s220.79-49.21,220.79-109.7C476.79,272.09,409.31,228.54,314.81,215.42ZM282.46,373h-.13c-8.3-.16-16.78-.76-25.23-1.77-32-3.83-61.5-13.29-83.05-26.63-23.12-14.32-34.72-31.69-32.65-48.93A6.85,6.85,0,0,1,155,297.27c-1.38,11.47,8.19,24.47,26.25,35.65,19.89,12.32,47.41,21.08,77.46,24.67,8,1,16,1.52,23.88,1.69a6.85,6.85,0,0,1-.14,13.69Zm-28-264.33a11.07,11.07,0,0,0,11.07-11.07V92.32a11.07,11.07,0,1,0-22.14,0v5.25A11.07,11.07,0,0,0,254.46,108.64Z"/></svg>