<svg id="Layer_1" data-name="Layer 1" xmlns="http://www.w3.org/2000/svg" viewBox="0 0 512 512"><defs><style>.cls-1{fill:#fff;}</style></defs><title>alerts</title><path id="Alert" class="cls-1" d="M439.48,361.67,291.3,109.89a39.53,39.53,0,0,0-34.25-19.65h-.11A39.5,39.5,0,0,0,222.7,109.7L72.63,361.48a39.88,39.88,0,0,0,34.25,60.28H405.12a39.87,39.87,0,0,0,34.36-60.09Zm-182.54-3.79a10.33,10.33,0,1,1,10.33-10.33A10.32,10.32,0,0,1,256.94,357.88ZM277,193.26l-13.3,111.35a6.84,6.84,0,0,1-13.58,0l-13.3-111.35A20.23,20.23,0,0,1,277,188.47,21.31,21.31,0,0,1,277,193.26Z"/></svg>