<svg id="Layer_1" data-name="Layer 1" xmlns="http://www.w3.org/2000/svg" viewBox="0 0 512 512"><defs><style>.cls-1{fill:#fff;}</style></defs><title>companies</title><path id="Companies" class="cls-1" d="M326.76,273.57H295.45v49.87h31.31Zm0,64.21H295.45v52h31.31Zm8.09-267.86h.84V79.8L421.56,152V69.92h.84a14.55,14.55,0,0,0,14.53-14.54V40.58A14.56,14.56,0,0,0,422.4,26H334.85a14.56,14.56,0,0,0-14.53,14.54v14.8A14.55,14.55,0,0,0,334.85,69.92Zm37.56,267.86H341.1v52h31.31Zm0-64.21H341.1v49.87h31.31Zm68.81,198.06H70.78a7.17,7.17,0,1,0,0,14.33H441.22a7.17,7.17,0,0,0,0-14.33ZM224.66,137.76h24.17V113.6A32.27,32.27,0,0,0,224.66,137.76Zm38.51,38.52a32.24,32.24,0,0,0,24.16-24.18H263.17Zm164.47,281V241.18H84.35V457.29H142.9V259.23h96.49V457.29ZM281.11,270.08A10.86,10.86,0,0,1,292,259.23H375.9a10.87,10.87,0,0,1,10.85,10.85V393.31a10.86,10.86,0,0,1-10.85,10.84H292a10.85,10.85,0,0,1-10.84-10.84Zm174.65-70.42L265.93,40a15.4,15.4,0,0,0-19.86,0L56.24,199.66a15.43,15.43,0,0,0,9.93,27.24H84.35v-.06H427.64v.06h18.19a15.43,15.43,0,0,0,9.93-27.24ZM256,191.43a46.49,46.49,0,1,1,46.49-46.49A46.54,46.54,0,0,1,256,191.43Zm7.17-77.83v24.16h24.16A32.23,32.23,0,0,0,263.17,113.6Zm-14.34,62.68V152.1H224.66A32.27,32.27,0,0,0,248.83,176.28Zm-42.9,200.25A11.12,11.12,0,1,0,217,365.41,11.1,11.1,0,0,0,205.93,376.53Z"/></svg>