<svg id="Layer_1" data-name="Layer 1" xmlns="http://www.w3.org/2000/svg" viewBox="0 0 512 512"><defs><style>.cls-1{fill:#fff;}</style></defs><title>flows</title><path id="Flows" class="cls-1" d="M318.25,202.57h0c27-.07,50.46-9.88,69.75-29.16a6.75,6.75,0,1,0-9.54-9.54c-16.67,16.67-36.94,25.15-60.25,25.21a6.75,6.75,0,0,0,0,13.49Zm17.35,29.92-1.67.14a6.74,6.74,0,1,0,1,13.44l1.79-.14c8.82-.75,29.5-2.49,53.35,8.2a6.74,6.74,0,1,0,5.52-12.3C368.57,229.71,345.47,231.66,335.6,232.49ZM119.68,93.77H59a6.74,6.74,0,0,0-6.74,6.74v311A6.74,6.74,0,0,0,59,418.23h60.72a6.74,6.74,0,0,0,6.74-6.74v-311A6.74,6.74,0,0,0,119.68,93.77ZM430.81,270.21a6.74,6.74,0,0,0-11.32,7.33c2.64,4.07,21.06,36.87,27.29,52.34A6.74,6.74,0,0,0,453,334.1a6.56,6.56,0,0,0,2.51-.49,6.72,6.72,0,0,0,3.74-8.76C452.64,308.34,433.66,274.61,430.81,270.21ZM443.49,354c-4.23-8-8.6-16.31-10.33-19.38a6.74,6.74,0,0,0-11.74,6.64c1.64,2.89,6.15,11.45,10.14,19,3.53,6.7,6.57,12.49,7.5,14.11a6.74,6.74,0,0,0,11.71-6.69C450,366.25,446.67,360,443.49,354ZM140,341.77h56V189.08H140ZM411.46,370c-6.91-8-11-17.56-15.65-28.55-7.18-16.84-15.31-35.93-36.21-54.27-26-22.85-53.23-26.66-66-27.05V192.9a22.85,22.85,0,0,0-22.82-22.82H232.51a22.86,22.86,0,0,0-22.5,19l.07,152.69a22.88,22.88,0,0,0,22.43,18.61h38.23a22.86,22.86,0,0,0,22.7-20.49c12.37,3.5,19.67,10.08,20.7,27.38l2,36.73a6.75,6.75,0,0,0,6.73,6.38l.37,0a6.73,6.73,0,0,0,6.36-7.09l-2-36.77c-1.68-28.22-17.67-36.68-34-40.5V273.63c10.85.45,34.62,3.88,57.15,23.65,18.58,16.31,25.76,33.14,32.7,49.42,4.91,11.52,9.55,22.41,17.82,32,18.74,21.83,27.61,30.86,28,31.23a6.74,6.74,0,0,0,9.6-9.46C438.72,400.42,429.84,391.36,411.46,370Zm-89.59-67.14A6.74,6.74,0,1,0,317,315.39c22.93,8.87,33.28,24.83,32.59,50.2a6.74,6.74,0,0,0,6.56,6.92h.18a6.75,6.75,0,0,0,6.74-6.56C363.93,335,350.06,313.73,321.87,302.82Z"/></svg>