<svg id="Layer_1" data-name="Layer 1" xmlns="http://www.w3.org/2000/svg" viewBox="0 0 512 512"><defs><style>.cls-1{fill:#fff;}</style></defs><title>inspections</title><path id="Inspections" class="cls-1" d="M319.11,91a102.1,102.1,0,0,0-102,102,100.92,100.92,0,0,0,15.44,53.29l-10.44,10.44L220.36,255a7.85,7.85,0,0,0-11.09,0l-10,10L247,312.59l10-10a7.83,7.83,0,0,0,0-11.09l-2.08-2.08,10.28-10.29a101.06,101.06,0,0,0,54,15.8,102,102,0,1,0,0-204ZM243.78,278.37l-10.56-10.56L242,259a102.4,102.4,0,0,0,10.52,10.62Zm75.33-12.24A73.14,73.14,0,1,1,392.25,193,73.15,73.15,0,0,1,319.11,266.13ZM95.81,368.42a8,8,0,0,0-1.56,2.19,35.35,35.35,0,0,0,47,47,7.92,7.92,0,0,0,2.2-1.54l92.42-92.43L188.23,276Z"/></svg>