<svg id="Layer_1" data-name="Layer 1" xmlns="http://www.w3.org/2000/svg" viewBox="0 0 512 512"><defs><style>.cls-1{fill:#fff;}</style></defs><title>logbooks</title><path id="Logbooks" class="cls-1" d="M292,287.94h122.5a6.74,6.74,0,1,0,0-13.47H292a6.74,6.74,0,1,0,0,13.47Zm0,36h122.5a6.74,6.74,0,1,0,0-13.48H292A6.74,6.74,0,1,0,292,324Zm0-72.05h122.5a6.74,6.74,0,1,0,0-13.48H292a6.74,6.74,0,1,0,0,13.48Zm0-108.09h21.62a6.74,6.74,0,1,0,0-13.48H292a6.74,6.74,0,1,0,0,13.48Zm0,72.06h21.62a6.74,6.74,0,1,0,0-13.48H292a6.74,6.74,0,0,0,0,13.48Zm0-36h21.62a6.74,6.74,0,0,0,0-13.48H292a6.74,6.74,0,1,0,0,13.48Zm55.33,25.22a6,6,0,0,0,6,6h57.53a6,6,0,0,0,6-6V141.15a6,6,0,0,0-6-6H353.34a6,6,0,0,0-6,6ZM220,166.38H97.47a6.74,6.74,0,1,0,0,13.48H220a6.74,6.74,0,1,0,0-13.48Zm0,36H97.47a6.74,6.74,0,1,0,0,13.48H220a6.74,6.74,0,1,0,0-13.48Zm0-72.06H97.47a6.74,6.74,0,1,0,0,13.48H220a6.74,6.74,0,1,0,0-13.48Zm245-14.41H457.3V358.27a10.22,10.22,0,0,1-10.22,10.22H284.83A35.49,35.49,0,0,0,256,383.24a35.54,35.54,0,0,0-28.83-14.75H64.92A10.23,10.23,0,0,1,54.7,358.27V115.94H47a21.17,21.17,0,0,0-21.16,21.14V374.89A21.15,21.15,0,0,0,47,396H213.87a35.62,35.62,0,0,0,34.93,28.82h14.41A35.61,35.61,0,0,0,298.13,396H465a21.16,21.16,0,0,0,21.16-21.16V137.08A21.17,21.17,0,0,0,465,115.94ZM68.18,87.14h159a22.1,22.1,0,0,1,22.08,22.08V338.86a6.74,6.74,0,0,0,13.48,0V109.22a22.11,22.11,0,0,1,22.09-22.08h159V353.73h-159A35.53,35.53,0,0,0,256,368.49a35.58,35.58,0,0,0-28.83-14.76h-159ZM220,274.47H198.36a6.74,6.74,0,1,0,0,13.47H220a6.74,6.74,0,1,0,0-13.47Zm0-36H198.36a6.74,6.74,0,1,0,0,13.48H220a6.74,6.74,0,1,0,0-13.48Zm0,72.05H198.36a6.74,6.74,0,1,0,0,13.48H220a6.74,6.74,0,1,0,0-13.48ZM157.65,244.6H102.14a5.77,5.77,0,0,0-5.77,5.77V312a5.77,5.77,0,0,0,5.77,5.77h55.51a5.77,5.77,0,0,0,5.77-5.77V250.37A5.77,5.77,0,0,0,157.65,244.6Z"/></svg>