<svg id="Layer_1" data-name="Layer 1" xmlns="http://www.w3.org/2000/svg" viewBox="0 0 512 512"><defs><style>.cls-1{fill:#fff;}</style></defs><title>reports</title><path id="Reports" class="cls-1" d="M473.28,421.86H418.76V133H354v288.9H340.53V225H276.38V421.86H262.9v-245H199.23v245H185.75V330.21H121v91.65H72.06V83.41a6.74,6.74,0,1,0-13.48,0V100.6H38.72a6.75,6.75,0,0,0,0,13.49H58.58v34.65H38.72a6.74,6.74,0,1,0,0,13.47H58.58v33.57H38.72a6.75,6.75,0,0,0,0,13.49H58.58v34.65H38.72a6.74,6.74,0,0,0,0,13.48H58.58v34.66H38.72a6.74,6.74,0,1,0,0,13.48H58.58V339.1H38.72a6.74,6.74,0,1,0,0,13.48H58.58v34.66H38.72a6.74,6.74,0,1,0,0,13.48H58.58V428.6a6.73,6.73,0,0,0,6.74,6.74h408a6.74,6.74,0,1,0,0-13.48ZM185.75,274.18H121v42.45h64.76Zm233-197.47H354v42.45h64.75Zm-77.93,92.42H276.08v42.45h64.75ZM262.9,120.89H199.23v42.45H262.9Z"/></svg>