<svg id="Layer_1" data-name="Layer 1" xmlns="http://www.w3.org/2000/svg" viewBox="0 0 512 512"><defs><style>.cls-1{fill:#fff;}</style></defs><title>samples</title><path id="Samplings" class="cls-1" d="M164.55,404.34a14.87,14.87,0,0,0,14.86,14.53H333.47a14.89,14.89,0,0,0,14.87-14.53L365.4,202H147.48Zm16.72-140A119.81,119.81,0,0,1,220,257.66c14.1,0,25.66,3.17,36.84,6.23,11.38,3.11,22.13,6.05,35.82,6.05,19.29,0,25.39-2.12,33.75-5.58l10.14-4.21-.84,11c-.46,6-7.76,109.72-8.11,114.75a10.83,10.83,0,0,1-10.8,10.52H195.87a10.83,10.83,0,0,1-10.81-10.52l-8.47-119.79ZM369.1,93.13H142.9A14.88,14.88,0,0,0,128,108v80.5H384V108A14.88,14.88,0,0,0,369.1,93.13Z"/></svg>