<svg id="Layer_1" data-name="Layer 1" xmlns="http://www.w3.org/2000/svg" viewBox="0 0 512 512"><defs><style>.cls-1{fill:#fff;}</style></defs><title>supports</title><path id="Support" class="cls-1" d="M351.23,180.33a14.66,14.66,0,0,0-7.33-12.68V193A14.66,14.66,0,0,0,351.23,180.33Zm-44-73.26a7.33,7.33,0,0,1,6.09,3.26l20,30L338,112.68a23.64,23.64,0,0,0-19.42-27.25,19.21,19.21,0,0,0-3.95-.33h0a7.31,7.31,0,0,1-6.94-5,24.84,24.84,0,0,0-23.54-17H197.4a7.34,7.34,0,0,1-6.1-3.26l-9.7-14.54-1,1a44.46,44.46,0,0,0-2,60.75ZM304.55,329.5l-34.63,19.79,25.44,17Zm-11.92-33.29A81.87,81.87,0,0,1,256,304.86h0a82,82,0,0,1-36.6-8.64v23.22L256,340.38l36.63-20.94Zm-76,70.05,25.45-17-34.64-19.8Zm30,11.85h18.73l3.89-11.66L256,357.61l-13.26,8.84Zm1.4,14.65-6.71,73.92h29.35L264,392.76Zm110-58.15-38.39-5.09L307,379.88a7.32,7.32,0,0,1-4.46,5.06,7.31,7.31,0,0,1-6.69-.74l-14-9.34-3.82,11.45,7.31,80.37h58.56V407.41h14.65v59.27h43.93V385.44A51.44,51.44,0,0,0,358,334.61ZM168.09,193V167.66a14.62,14.62,0,0,0,0,25.33Zm48,191.22a7.33,7.33,0,0,1-11.17-4.32l-12.59-50.38L154,334.6a51.46,51.46,0,0,0-44.48,50.83v81.25h44V407.41h14.66v59.27h58.48l7.31-80.38-3.81-11.42ZM329.25,200.1h0V160.56l-25.9-38.84H182.75V200.1a114.61,114.61,0,0,0,14.38,55.49A67.35,67.35,0,0,0,256,290.2h0a67.37,67.37,0,0,0,58.85-34.61A114.78,114.78,0,0,0,329.25,200.1ZM212.08,187.65A14.65,14.65,0,1,1,226.73,173,14.65,14.65,0,0,1,212.08,187.65Zm23.42,33.71a7.31,7.31,0,0,1-1.19-6.42L249,163.66l14.09,4-12,41.94h12.26v14.65h-22A7.33,7.33,0,0,1,235.5,221.36Zm14.42,32.22h-8.57V238.93h8.57a42.5,42.5,0,0,0,30.2-12.51l10.36,10.36A57.06,57.06,0,0,1,249.92,253.58ZM300,187.65A14.65,14.65,0,1,1,314.63,173,14.65,14.65,0,0,1,300,187.65Z"/></svg>