<svg id="Layer_1" data-name="Layer 1" xmlns="http://www.w3.org/2000/svg" viewBox="0 0 512 512"><defs><style>.cls-1{fill:#fff;}</style></defs><title>tickets</title><path id="Tickets" class="cls-1" d="M331,100.83l33.3,39h94.4l-17.54-20.53-6.92,5.9a20.69,20.69,0,1,1-26.87-31.46l6.93-5.92L387,55.79,380,61.7a20.69,20.69,0,0,1-29.16-2.29l-9.19-10.76L234.89,139.84h50.45ZM476.48,230.92h9.11V188.78h-9.11A20.69,20.69,0,0,1,455.8,168.1v-1.67a20.05,20.05,0,0,1,5.81-9.18l3.86-3.3H56.2v22.93a20.72,20.72,0,0,1-20.7,20.7H26.41V239.7H35.5a20.69,20.69,0,1,1,0,41.38H26.41V323.2H35.5a20.72,20.72,0,0,1,20.7,20.7v1.66a20,20,0,0,1-5.82,9.2l-3.85,3.29H455.8V335.12a20.71,20.71,0,0,1,20.68-20.7h9.11V272.3h-9.11a20.69,20.69,0,0,1,0-41.38Zm-62.67,92.64H98.29V186.71H413.81ZM179.94,409.79l-32.12-37.63H53.28l17.54,20.53,6.91-5.9a20.69,20.69,0,1,1,26.87,31.47l-6.92,5.91,27.36,32,6.92-5.9a20.71,20.71,0,0,1,29.18,2.3l9.19,10.76,106.78-91.19H224Z"/></svg>