<svg xmlns="http://www.w3.org/2000/svg" viewBox="0 0 512 512"><defs><style>.cls-1{fill:#fff;}</style></defs><title>To-Dos</title><path class="cls-1" d="M432.56,358.37,410.79,247V133.42a23.11,23.11,0,0,0-23.12-23.11h-3.59l-.72-3.68a23.73,23.73,0,0,0-8.72-14.42,23,23,0,0,0-18.5-4.35L241.32,110.31H205.45v-4.74a17.38,17.38,0,0,1,33.82-5.64,16.58,16.58,0,0,1,.61,2.3l12.41-2.41a28.48,28.48,0,0,0-1.07-4,30,30,0,0,0-58.4,9.73v4.74h-68.5a23.13,23.13,0,0,0-23.11,23.11v4.27l-3.53.69A23.15,23.15,0,0,0,79.43,165.5l21.78,111.42V390.45a23.11,23.11,0,0,0,23.11,23.11h3.6l.71,3.67a23.83,23.83,0,0,0,10.16,15.45,22.91,22.91,0,0,0,12.58,3.76,23.44,23.44,0,0,0,4.48-.43l114.83-22.45h117a23.11,23.11,0,0,0,23.12-23.11v-4.27l3-.59a23.73,23.73,0,0,0,14.42-8.72A22.94,22.94,0,0,0,432.56,358.37ZM101.21,200.07l-7.31-37.4a8.37,8.37,0,0,1,6.61-9.82l.7-.14ZM153,421.54a8.37,8.37,0,0,1-9.82-6.61l-.27-1.37h50.89Zm103-227a31.59,31.59,0,0,1-63.18,0V125.05h12.63v69.49a19,19,0,1,0,37.91,0V149.27a6.32,6.32,0,1,0-12.63,0v26.32a6.32,6.32,0,0,1-12.64,0V149.27a19,19,0,1,1,37.91,0Zm62.17-84.23,3.51-.69h-.17l37.4-7.31a8.37,8.37,0,0,1,6.29,1.28h.05a8.35,8.35,0,0,1,3.54,5.34l.27,1.37Zm98.65,257.17a8.31,8.31,0,0,1-5.33,3.54l-.7.14V323.8l7.31,37.4A8.36,8.36,0,0,1,416.82,367.48Z"/></svg>
