<svg id="Layer_1" data-name="Layer 1" xmlns="http://www.w3.org/2000/svg" viewBox="0 0 512 512"><defs><style>.cls-1{fill:#fff;}</style></defs><title>users</title><path id="Users" class="cls-1" d="M280,139.79a4.83,4.83,0,0,1,2.39-.63,5,5,0,0,1,1.56.26,4.89,4.89,0,0,1,2.92,2.68l.38.88c2.76,6.37,9.37,21.63,18.4,28l2.2-22.19A18.32,18.32,0,0,0,294,129.24a4.89,4.89,0,0,1-3.74-4.76c0-12.13-18.62-14.67-34.25-14.67-44.67,0-62,36-67,49.79C230.21,164.5,266.08,147.57,280,139.79ZM266.79,286.14H245.35a24.45,24.45,0,0,1-13.8-4.28v12.71A14.62,14.62,0,0,1,226.22,306a43.47,43.47,0,0,0,56.72,2.47c1-.76,1.9-1.59,2.8-2.43a14.68,14.68,0,0,1-5.26-11.37v-12.7A24.42,24.42,0,0,1,266.79,286.14ZM449.56,241h-.12a21,21,0,0,1-20.95-20.91v-5.81h-4.27l-2.86,22.9h7.13v7.63H417a3.82,3.82,0,0,1-3.79-4.29l.6-4.85A20.83,20.83,0,0,1,400,241h-.12a20.82,20.82,0,0,1-12.46-4.1l0,.44a37.5,37.5,0,0,0,40.5,34.07c1.12-.09,2.24-.24,3.34-.44A38.13,38.13,0,0,0,462,236.89,20.89,20.89,0,0,1,449.56,241Zm-31.87,19.08H417v-7.64h.65a22.1,22.1,0,0,0,15.73-6.51l5.4,5.4A29.76,29.76,0,0,1,417.69,260.06ZM304.94,231.14V181.79c-12.36-5.4-20.47-21.08-24.91-30.92-14.36,7.41-41.15,18.62-72.84,19.35v60.64a24.46,24.46,0,0,0,6,16.35l21.13,24.16a14.71,14.71,0,0,0,11,5h21.42a14.7,14.7,0,0,0,11-5l21.15-23.93A24.43,24.43,0,0,0,304.94,231.14ZM241.37,217l4.89-39.14,9.71,1.21-4.2,33.64h9.14v9.79H246.23a4.9,4.9,0,0,1-4.86-5.5Zm-14.71-19a9.79,9.79,0,1,1,9.78-9.78A9.78,9.78,0,0,1,226.66,198.07Zm28.19,43.84H241.33v-9.78h13.52a41.61,41.61,0,0,0,18.55-4.38l4.38,8.75A51.54,51.54,0,0,1,254.85,241.91Zm25.63-43.84a9.79,9.79,0,1,1,9.78-9.78A9.78,9.78,0,0,1,280.48,198.07ZM398,199H386.5v7.64h76.34V198a45.39,45.39,0,0,1-16.23-9.83C431.79,193.65,414.66,199,398,199Zm34.7,79.47c-1.4.24-2.74.42-4.09.54s-2.62.17-3.93.17a44.82,44.82,0,0,1-15.23-2.66v14.43a11.44,11.44,0,0,1-10.07,11.43l-2.73.32a30.83,30.83,0,0,0,28,18h0a30.87,30.87,0,0,0,28-17.95L450,302.4A11.43,11.43,0,0,1,439.94,291V276.41A46.49,46.49,0,0,1,432.65,278.46Zm45.45-56.57a7.64,7.64,0,0,0-7.63-7.63v11.45l-.29,3.82h.29A7.64,7.64,0,0,0,478.1,221.89Zm-95.41-38.16h-10.8a11.48,11.48,0,0,0,10.8,7.63H398c18.56,0,38.63-7.57,48.27-11.2a3.82,3.82,0,0,1,4.12.94,37.6,37.6,0,0,0,12.49,8.71V176.09a15.28,15.28,0,0,0-15.26-15.26,3.81,3.81,0,0,1-3.42-2.12,10.11,10.11,0,0,0-8.93-5.51H371.89a11.48,11.48,0,0,0,10.8,7.63,3.82,3.82,0,1,1,0,7.63h-10.8a11.47,11.47,0,0,0,10.8,7.64,3.82,3.82,0,1,1,0,7.63Zm-3.82,45.8h.29l-.28-3.53v-5.58c0-.12,0-.23,0-.35v-5.81a7.64,7.64,0,0,0,0,15.27Zm7.64-15.27V220a13.34,13.34,0,0,0,13.32,13.36h.11A13.33,13.33,0,0,0,413.22,220v-5.73h-4.84a7.64,7.64,0,1,1-13.21,0Zm76.33,0h-8.67a7.63,7.63,0,1,1-13.21,0h-4.84V220a13.47,13.47,0,0,0,13.35,13.36h.09A13.32,13.32,0,0,0,462.84,220ZM319.62,197.88a9.78,9.78,0,0,0-4.9-8.47v16.93A9.76,9.76,0,0,0,319.62,197.88ZM77.93,333l9.4,21.13L96.72,333Zm62.35-30.1-9.23-1.15,13.2,29.69a3.82,3.82,0,0,1-3.49,5.37H118.93l2.63,10.53a3.83,3.83,0,0,1-2,4.34L91.14,365.91V375h57.23V347.26a44,44,0,0,1,12.17-30.32A26.72,26.72,0,0,0,140.28,302.92Zm183.88,10.49-28.33-3.77a53.22,53.22,0,0,1-79.71-.08l-28.25,3.75a34.36,34.36,0,0,0-29.71,33.95v54.93h29.35v-50h9.79v50H314.73v-50h9.79v50h29.35V347.26A34.37,34.37,0,0,0,324.16,313.41ZM53.09,347.36l2.63-10.53H33.89a3.81,3.81,0,0,1-3.48-5.36l13.2-29.71-9.24,1.15A26.77,26.77,0,0,0,11,329.43V375H83.51v-9.09L55.09,351.7A3.83,3.83,0,0,1,53.09,347.36Zm424.73-41.68-17.17-2-.56,1.31a38.48,38.48,0,0,1-35.4,23.34h0A38.44,38.44,0,0,1,389.26,305l-.58-1.34-17.22,2A26.66,26.66,0,0,0,352.39,318a43.92,43.92,0,0,1,11.27,29.22v4h7.58v-7.64h7.63V375h91.6V343.57h7.63v7.64H501V332.12A26.81,26.81,0,0,0,477.82,305.68ZM115.58,169.23a3.83,3.83,0,0,1,2.28,3.5c0,.12.3,13.82,13.51,34.34h1.75a15,15,0,0,1,3.82.49V189.48a26.62,26.62,0,0,0-16.69-24.67A3.61,3.61,0,0,1,119,164a36.16,36.16,0,0,0-25.11-10.33H87.33A53.37,53.37,0,0,0,49,170.56C38.46,181.93,33.18,198,33.65,217.3c39.1-12.47,77.43-47,77.82-47.4A3.83,3.83,0,0,1,115.58,169.23ZM363.66,375h7.58V358.84h-7.58ZM197.4,211.29v-17a9.77,9.77,0,0,0,0,17ZM478.1,375H501V358.84H478.1ZM52.52,266.2a43.63,43.63,0,0,1-8.89-24.61l-.31-4H41.53a15.23,15.23,0,0,1-5.78-1.13A107.4,107.4,0,0,0,51,274Zm61.52,63h20.84L122.2,300.67l-2.6-.33-24.46,55,18.27-9.13-3.08-12.3A3.83,3.83,0,0,1,114,329.2Zm-52.8,17,18.28,9.14-24.46-55-2.61.33L39.77,329.2H60.61a3.81,3.81,0,0,1,3.7,4.74Zm71.42-131.53L131.73,230h1.39a7.63,7.63,0,1,0,0-15.26Zm.46,22.9h-1.86l-.24,4a43.5,43.5,0,0,1-8.89,24.55l1.73,8.67c8.73-12.35,11.64-28.46,12.6-37.65A14.74,14.74,0,0,1,133.12,237.61ZM111.7,299.32A11.45,11.45,0,0,1,102.63,288v-7.37a44.09,44.09,0,0,1-30.6,0v7.4A11.44,11.44,0,0,1,63,299.32l11.59,26.07h25.57ZM42.72,230l-.6-7.52c-2.56,1-5.13,1.83-7.71,2.61A7.62,7.62,0,0,0,41.53,230Zm6.83-10.51,1.7,21.66A36.11,36.11,0,0,0,71.14,272H72v.44a36.32,36.32,0,0,0,30.6,0V272h.89a36,36,0,0,0,19.88-30.69l1.81-29.66c-8.86-13.65-12.48-24.64-14-31.42a294,294,0,0,1-44.84,31,7.65,7.65,0,1,1-9.15,4.75C54.72,217.15,52.15,218.34,49.55,219.46Zm60.67-8.57a7.64,7.64,0,1,1-7.63,7.63A7.64,7.64,0,0,1,110.22,210.89Zm-9.73,41.58a40.23,40.23,0,0,1-17.87,4.22H79.69v-7.63h2.92a32.44,32.44,0,0,0,14.46-3.42ZM73.18,231.09l11.45-11.45L90,225l-8.15,8.16,7.57,5.05-4.23,6.35L73.76,237a3.82,3.82,0,0,1-.58-5.88Z"/></svg>