<svg id="Layer_1" data-name="Layer 1" xmlns="http://www.w3.org/2000/svg" viewBox="0 0 512 512"><defs><style>.cls-1{fill:#e8e8e8;}.cls-2{fill:#1a3762;}</style></defs><title>alerts</title><g id="Alerts"><path class="cls-1" d="M471.63,388.46C487.38,415.22,468.08,449,437,449H75c-31.16,0-50.44-33.94-34.49-60.7L222.66,82.62c15.62-26.21,53.61-26.1,69.09.19Z"/><path class="cls-2" d="M477.69,384.89l-78-132.46a7,7,0,0,0-12.12,7.14l78,132.46A33.11,33.11,0,0,1,437,441.94H75a33.11,33.11,0,0,1-28.44-50.07L228.7,86.22a32.8,32.8,0,0,1,28.44-16.16h.1a32.8,32.8,0,0,1,28.44,16.32l77.54,131.76A7,7,0,1,0,375.34,211L297.8,79.24A46.79,46.79,0,0,0,257.27,56h-.13a46.76,46.76,0,0,0-40.52,23L34.45,384.67A47.17,47.17,0,0,0,75,456H437a47.18,47.18,0,0,0,40.67-71.11ZM272.85,177.82a15.74,15.74,0,1,0-31.41,2L250.12,315a7,7,0,0,0,14.05,0l8.68-135.17A15.13,15.13,0,0,0,272.85,177.82ZM257.14,357.88a9.26,9.26,0,1,0,9.26,9.26A9.26,9.26,0,0,0,257.14,357.88Z"/></g></svg>