<svg id="Layer_1" data-name="Layer 1" xmlns="http://www.w3.org/2000/svg" viewBox="0 0 512 512"><defs><style>.cls-1{fill:#e8e8e8;}.cls-2{fill:#1a3762;}</style></defs><title>companies</title><g id="Companies"><path class="cls-1" d="M86.82,478.6H425.55V451.82H86.82Zm14-270.89V450.49h310V207.71ZM370.06,409.16H281.77v-125h88.29Zm67.25-212.68-32.58-27.4V59.94h12.95V33.15H325.42V59.94h12.95v53.32l-2.62-2.2L259.27,46.73a5.18,5.18,0,0,0-6.54,0L74.66,196.5a5.08,5.08,0,0,0,3.3,8.95H434a5.08,5.08,0,0,0,3.27-9Z"/><path class="cls-2" d="M286.75,245.37a10.18,10.18,0,0,0-10.17,10.17V403.69a10.18,10.18,0,0,0,10.17,10.17h78.74a10.18,10.18,0,0,0,10.17-10.17V255.54a10.18,10.18,0,0,0-10.17-10.17Zm32.65,155H290V352.62H319.4Zm0-61.24H290V291.39H319.4Zm42.81,61.24H332.85V352.62h29.36Zm0-61.24H332.85V291.39h29.36Zm0-61.23H290V258.82h72.18Zm81.14-88.65h0l-32.07-27V67.61h.78A13.66,13.66,0,0,0,425.7,54V40.09a13.66,13.66,0,0,0-13.64-13.64H386.7a6.73,6.73,0,0,0,0,13.45h25.36a.19.19,0,0,1,.19.19V54a.18.18,0,0,1-.19.19H330a.18.18,0,0,1-.18-.19V40.09a.19.19,0,0,1,.18-.19h25.36a6.73,6.73,0,0,0,0-13.45H330a13.65,13.65,0,0,0-13.63,13.64V54A13.65,13.65,0,0,0,330,67.61h.78v27l-65.43-55a14.43,14.43,0,0,0-18.62,0l-178,149.74A14.48,14.48,0,0,0,78,214.84H95V444.39H92.78A13.66,13.66,0,0,0,79.14,458v13.88a13.66,13.66,0,0,0,13.64,13.64H419.22a13.66,13.66,0,0,0,13.64-13.64V458a13.66,13.66,0,0,0-13.64-13.64H417v-82.8a6.73,6.73,0,0,0-13.45,0v82.8H253.88V258.46a13.11,13.11,0,0,0-13.09-13.09H149.56a13.11,13.11,0,0,0-13.09,13.09V444.39h-28V214.84H403.54V330.21a6.73,6.73,0,0,0,13.45,0V214.84H434a14.47,14.47,0,0,0,9.31-25.55ZM344.19,67.61h53.64V82.46H344.19Zm0,28.31h53.64v15.4H350.65l-6.46-5.43Zm53.64,28.85V151l-31.19-26.23ZM149.92,258.82h90.51v19.12H149.92Zm0,32.57h90.51v153H149.92Zm269.3,166.45a.19.19,0,0,1,.19.19v13.88a.2.2,0,0,1-.19.19H92.78a.2.2,0,0,1-.19-.19V458a.19.19,0,0,1,.19-.19ZM435,200.72h0a.91.91,0,0,1-1,.67H78a1,1,0,0,1-.66-1.8l178-149.75a1,1,0,0,1,1.32,0l76.48,64.32c3.26,2.75,89.38,75.19,101.56,85.42A.93.93,0,0,1,435,200.72ZM256,94.36A43.61,43.61,0,1,0,299.61,138,43.66,43.66,0,0,0,256,94.36Zm-6.73,73a30.24,30.24,0,0,1-22.66-22.67h22.66Zm0-36.12H226.61a30.25,30.25,0,0,1,22.66-22.66Zm13.45,36.12V144.69h22.67A30.24,30.24,0,0,1,262.72,167.36Zm0-36.12V108.58a30.24,30.24,0,0,1,22.67,22.66ZM225.37,344.47a6.73,6.73,0,0,0-5.7-3.16H205.39a6.73,6.73,0,1,0,0,13.45h10.55l2.49,4a6.72,6.72,0,1,0,11.4-7.13Z"/></g></svg>