<svg id="Layer_1" data-name="Layer 1" xmlns="http://www.w3.org/2000/svg" viewBox="0 0 512 512"><defs><style>.cls-1{fill:#e8e8e8;}.cls-2{fill:#1a3762;}</style></defs><title>flows</title><g id="Flows"><path class="cls-1" d="M266.75,176.57h-30.6a19.22,19.22,0,0,0-19.23,19.22v.07H120.19V102.1H59.68v310h60.51V333.91h96.73V335a19.23,19.23,0,0,0,19.23,19.23h30.6A19.23,19.23,0,0,0,286,335V195.79A19.22,19.22,0,0,0,266.75,176.57Z"/><path class="cls-2" d="M318.09,202.7h0c26.93-.07,50.34-9.85,69.57-29.09a6.72,6.72,0,0,0-9.51-9.51c-16.63,16.63-36.85,25.09-60.1,25.15a6.73,6.73,0,0,0,0,13.45Zm17.31,29.85-1.66.14a6.72,6.72,0,1,0,1,13.41l1.78-.15c8.81-.74,29.43-2.48,53.22,8.19a6.72,6.72,0,1,0,5.5-12.27C368.29,229.78,345.24,231.72,335.4,232.55ZM321.7,302.7a6.73,6.73,0,0,0-4.85,12.55c22.87,8.85,33.21,24.76,32.52,50.07a6.72,6.72,0,0,0,6.54,6.9h.18a6.72,6.72,0,0,0,6.72-6.54C363.65,334.77,349.82,313.58,321.7,302.7Zm137.07,22c-6.63-16.46-25.56-50.11-28.4-54.49a6.72,6.72,0,1,0-11.29,7.3c2.63,4.07,21,36.79,27.22,52.21a6.71,6.71,0,0,0,6.24,4.22,6.73,6.73,0,0,0,6.23-9.24ZM443,353.73c-4.21-8-8.57-16.27-10.29-19.33A6.73,6.73,0,0,0,421,341c1.63,2.88,6.13,11.43,10.1,19,3.52,6.68,6.56,12.45,7.49,14.07a6.72,6.72,0,0,0,5.84,3.39,6.61,6.61,0,0,0,3.33-.89,6.72,6.72,0,0,0,2.51-9.17C449.46,366,446.19,359.74,443,353.73Zm-31.94,15.94c-6.9-8-10.94-17.5-15.61-28.48-7.16-16.79-15.28-35.83-36.12-54.13-26-22.79-53.1-26.59-65.87-27v-67a22.79,22.79,0,0,0-22.77-22.77H232.57a22.8,22.8,0,0,0-22.44,19H126.75V100.9A6.72,6.72,0,0,0,120,94.18H59.46a6.72,6.72,0,0,0-6.72,6.72V322.75a6.73,6.73,0,1,0,13.45,0V107.63H113.3V404.37H66.19V358.2a6.73,6.73,0,1,0-13.45,0v52.9a6.72,6.72,0,0,0,6.72,6.72H120a6.72,6.72,0,0,0,6.73-6.72V341.56H210.2a22.81,22.81,0,0,0,22.37,18.55H270.7a22.79,22.79,0,0,0,22.65-20.43C305.69,343.17,313,349.73,314,367l2,36.64a6.72,6.72,0,0,0,6.71,6.36h.37a6.74,6.74,0,0,0,6.35-7.09l-2-36.67c-1.68-28.15-17.63-36.59-33.95-40.39V273.58c10.82.45,34.53,3.87,57,23.59,18.54,16.27,25.69,33.06,32.62,49.3,4.9,11.5,9.52,22.36,17.77,32,18.7,21.77,27.54,30.78,27.91,31.15a6.72,6.72,0,0,0,9.58-9.44C438.26,400.06,429.4,391,411.07,369.67ZM280,337.35a9.33,9.33,0,0,1-9.32,9.31H232.57a9.32,9.32,0,0,1-9.31-9.31V248.59a6.73,6.73,0,1,0-13.45,0v79.52H126.75V202.7h83.06v11.35a6.73,6.73,0,0,0,13.45,0v-21a9.32,9.32,0,0,1,9.31-9.32H270.7a9.33,9.33,0,0,1,9.32,9.32Z"/></g></svg>