<svg id="Layer_1" data-name="Layer 1" xmlns="http://www.w3.org/2000/svg" viewBox="0 0 512 512"><defs><style>.cls-1{fill:#e8e8e8;}.cls-2{fill:#1a3762;}</style></defs><title>inspections</title><g id="Inspections"><path class="cls-1" d="M204.1,261.67l-143,143v0a34.67,34.67,0,0,0,46.13,46.14h0l143-143ZM335.55,57.92A118.66,118.66,0,1,0,454.2,176.58,118.66,118.66,0,0,0,335.55,57.92Zm0,210.85a92.19,92.19,0,1,1,92.18-92.19A92.19,92.19,0,0,1,335.55,268.77Z"/><path class="cls-2" d="M335.55,50.11A126.25,126.25,0,0,0,228.88,244.26l-15.57,15.57-3.68-3.69a7.83,7.83,0,0,0-11.06,0l-63,63a7.82,7.82,0,1,0,11,11.06l38-38,35.06,35.05L102.71,444.24a26.83,26.83,0,0,1-35.06-35.06l54.12-54.13a7.81,7.81,0,1,0-11-11.05L55.54,399.14a7.66,7.66,0,0,0-1.54,2.2,42.5,42.5,0,0,0,56.54,56.52,7.46,7.46,0,0,0,2.19-1.55l143-143a7.83,7.83,0,0,0,0-11.06l-4.08-4.08,15.41-15.41A126.42,126.42,0,1,0,335.55,50.11ZM230.68,316.25,195.63,281.2l8.47-8.47,35.05,35Zm9.92-29.14-16.23-16.22,13.75-13.75a128.27,128.27,0,0,0,16.2,16.26Zm95,.31A110.84,110.84,0,1,1,446.39,176.58,111,111,0,0,1,335.55,287.42Zm0-210.84a100,100,0,1,0,100,100A100.11,100.11,0,0,0,335.55,76.58Zm0,184.37a84.37,84.37,0,1,1,84.36-84.37A84.47,84.47,0,0,1,335.55,261Z"/></g></svg>