<svg id="Layer_1" data-name="Layer 1" xmlns="http://www.w3.org/2000/svg" viewBox="0 0 512 512"><defs><style>.cls-1{fill:#e8e8e8;}.cls-2{fill:#1a3762;}</style></defs><title>logbooks</title><g id="Logbooks"><path class="cls-1" d="M464.86,122.94H448.31V95.32H282.94A26.94,26.94,0,0,0,256,122.26a26.94,26.94,0,0,0-26.94-26.94H63.69v27.62H49.3A14.26,14.26,0,0,0,35,137.2V374.78A14.26,14.26,0,0,0,49.3,389.05H219.55v.59A27.45,27.45,0,0,0,247,417.09h17.25a27.45,27.45,0,0,0,27.45-27.45v-.59H464.86a14.27,14.27,0,0,0,14.27-14.27V137.2A14.27,14.27,0,0,0,464.86,122.94ZM163.56,317.1H97.42V245.22h66.14ZM414.22,209.28H349.41V137.4h64.81Z"/><path class="cls-2" d="M220.06,310.37H198.5a6.73,6.73,0,1,0,0,13.45h21.56a6.73,6.73,0,1,0,0-13.45ZM464.45,116.3H456.8v-22a6.73,6.73,0,0,0-6.73-6.72H284.75A35.46,35.46,0,0,0,256,102.27a35.46,35.46,0,0,0-28.75-14.72H61.93a6.72,6.72,0,0,0-6.72,6.72v22H47.55a21.13,21.13,0,0,0-21.1,21.1V374.6a21.13,21.13,0,0,0,21.1,21.1H84.2v0a6.72,6.72,0,1,0,0-13.44H47.55a7.66,7.66,0,0,1-7.65-7.65V137.4a7.66,7.66,0,0,1,7.65-7.65h7.66V360.22A6.72,6.72,0,0,0,61.93,367h49.45a6.73,6.73,0,0,0,0-13.45H68.66V101H227.25a22.05,22.05,0,0,1,22,22V338.66a6.73,6.73,0,0,0,13.45,0V123a22,22,0,0,1,22-22h158.6V353.5H284.75A35.48,35.48,0,0,0,256,368.21a35.48,35.48,0,0,0-28.75-14.71h-46v0l-.12,0a6.73,6.73,0,0,0,0,13.45h46.08a22,22,0,0,1,22,22,6.73,6.73,0,0,0,13.46,0,22,22,0,0,1,22-22H450.07a6.72,6.72,0,0,0,6.72-6.73V129.75h7.65a7.66,7.66,0,0,1,7.66,7.65V374.6h0a7.66,7.66,0,0,1-7.65,7.65H291.94a6.72,6.72,0,0,0-6.72,6.72,22.06,22.06,0,0,1-22,22H248.81a22,22,0,0,1-22-22,6.72,6.72,0,0,0-6.73-6.72H162.54l-.08,0a6.72,6.72,0,0,0,0,13.44v0H214a35.52,35.52,0,0,0,34.83,28.75h14.38A35.54,35.54,0,0,0,298,395.7H464.45a21.13,21.13,0,0,0,21.1-21.1V137.4A21.13,21.13,0,0,0,464.45,116.3ZM220.06,238.49H198.5a6.73,6.73,0,1,0,0,13.45h21.56a6.73,6.73,0,1,0,0-13.45Zm0,35.94H198.5a6.73,6.73,0,1,0,0,13.45h21.56a6.73,6.73,0,1,0,0-13.45ZM97.87,180.07H220.06a6.73,6.73,0,1,0,0-13.45H97.87a6.73,6.73,0,1,0,0,13.45Zm0-35.94H220.06a6.73,6.73,0,1,0,0-13.45H97.87a6.73,6.73,0,1,0,0,13.45Zm0,71.87H220.06a6.73,6.73,0,1,0,0-13.45H97.87a6.73,6.73,0,1,0,0,13.45Zm194.07-35.93H313.5a6.73,6.73,0,1,0,0-13.45H291.94a6.73,6.73,0,0,0,0,13.45Zm-200.8,137a6.73,6.73,0,0,0,6.73,6.72h64.69a6.72,6.72,0,0,0,6.73-6.72V245.22a6.73,6.73,0,0,0-6.73-6.73H97.87a6.73,6.73,0,0,0-6.73,6.73Zm13.46-65.16h51.23v58.43H104.6ZM349.44,173.8a6.72,6.72,0,0,0-6.72,6.73v28.75a6.72,6.72,0,0,0,6.72,6.72h64.69a6.72,6.72,0,0,0,6.73-6.72V137.4a6.72,6.72,0,0,0-6.73-6.72H349.44a6.72,6.72,0,0,0-6.72,6.72v14.37a6.73,6.73,0,1,0,13.45,0v-7.64h51.24v58.42H356.17v-22A6.73,6.73,0,0,0,349.44,173.8Zm-57.5,150H414.13a6.73,6.73,0,1,0,0-13.45H291.94a6.73,6.73,0,0,0,0,13.45Zm0-35.94H414.13a6.73,6.73,0,1,0,0-13.45H291.94a6.73,6.73,0,0,0,0,13.45Zm0-143.75H313.5a6.73,6.73,0,1,0,0-13.45H291.94a6.73,6.73,0,0,0,0,13.45Zm0,107.81H414.13a6.73,6.73,0,1,0,0-13.45H291.94a6.73,6.73,0,0,0,0,13.45Zm0-35.94H313.5a6.73,6.73,0,1,0,0-13.45H291.94a6.73,6.73,0,0,0,0,13.45Z"/></g></svg>