<svg id="Layer_1" data-name="Layer 1" xmlns="http://www.w3.org/2000/svg" viewBox="0 0 512 512"><defs><style>.cls-1{fill:#ededed;}.cls-2{fill:#1a3762;}</style></defs><title>plant</title><g id="Plant"><path class="cls-1" d="M307.77,194.7c3.53,7.74,5.75,14.93,5.75,20.82,0,30.66-26.49,55.5-59.16,55.5s-59.17-24.84-59.17-55.5c0-5.78,2.11-12.79,5.53-20.36C93.75,208,14,256.89,14,315.43c0,68.29,108.35,123.64,242,123.64s242-55.35,242-123.64C498,256.24,416.51,206.83,307.77,194.7Z"/><path class="cls-2" d="M314.42,188.16a7.37,7.37,0,0,0-1.69.13c-15.46-31.56-48.23-68.18-53-73.42l-5.39-5.93-5.4,5.93c-4.77,5.26-37.79,42.17-53.17,73.83a6.67,6.67,0,0,0-1.55-.1C83.82,203.2,6.71,255.39,6.71,315.52,6.71,389,116.21,446.46,256,446.46a453,453,0,0,0,98-10.37,7.29,7.29,0,1,0-3.16-14.24,439.06,439.06,0,0,1-94.83,10c-129.4,0-234.68-52.18-234.68-116.35,0-51.49,69-96.82,168.47-111.47a43.26,43.26,0,0,0-1.89,11.47c0,34.63,29.82,62.8,66.47,62.8a68.12,68.12,0,0,0,47.38-18.89c44.58,11,77.18,32.78,79.69,53.65a20.68,20.68,0,0,1,0,4.91,7.3,7.3,0,0,0,6.38,8.11,8.65,8.65,0,0,0,.88,0,7.31,7.31,0,0,0,7.24-6.43,35.51,35.51,0,0,0,0-8.37c-3.18-26.48-36-51.07-84.39-64.37a59.48,59.48,0,0,0,9.29-31.46,44.19,44.19,0,0,0-2-12c99.93,14,171.88,60.49,171.88,112,0,33.77-30.18,66-82.8,88.36a7.3,7.3,0,0,0,2.86,14,7.42,7.42,0,0,0,2.86-.58c58.27-24.8,91.68-61.89,91.68-101.79C505.29,254.54,426.8,202.17,314.42,188.16Zm-60.06,75.56c-28.6,0-51.87-21.62-51.87-48.2,0-20.55,33.57-63.59,51.87-84.72,18.29,21.13,51.86,64.17,51.86,84.72C306.22,242.1,283,263.72,254.36,263.72Zm4.54,90.65c-32-3.84-61.33-13.18-82.52-26.3-19.24-11.91-29.44-25.75-28-38a7.3,7.3,0,0,0-14.5-1.74c-2.2,18.37,10.15,36.88,34.78,52.12,23,14.22,54.38,24.3,88.48,28.37,9,1.08,18,1.71,26.87,1.9h.15a7.3,7.3,0,0,0,.14-14.6C276,356,267.43,355.38,258.9,354.37ZM254.36,83.59a7.3,7.3,0,0,0,7.3-7.29V72.83a7.3,7.3,0,0,0-14.6,0V76.3A7.29,7.29,0,0,0,254.36,83.59Z"/></g></svg>