<svg id="Layer_1" data-name="Layer 1" xmlns="http://www.w3.org/2000/svg" viewBox="0 0 512 512"><defs><style>.cls-1{fill:#e8e8e8;}.cls-2{fill:#1a3762;}</style></defs><title>reports</title><g id="Reports"><polygon class="cls-1" points="344.93 170.43 269.77 170.43 269.77 120.67 191.81 120.67 191.81 274.16 115.98 274.16 115.98 434.17 344.93 434.17 344.93 170.43"/><path class="cls-2" d="M472.73,428.3H431.8V284.88a6.73,6.73,0,1,0-13.45,0V428.3H353.76V140.13h64.59V252.52a6.73,6.73,0,0,0,13.45,0V77a6.72,6.72,0,0,0-6.72-6.73H347A6.73,6.73,0,0,0,340.31,77v85.87h-64V120.41a6.73,6.73,0,0,0-6.73-6.73h-77a6.73,6.73,0,0,0-6.73,6.73V267.54H114.61a6.73,6.73,0,0,0-6.73,6.73v154H72.52V90.7a6.73,6.73,0,1,0-13.45,0v17.15H39.27a6.73,6.73,0,0,0,0,13.45h19.8v34.56H39.27a6.73,6.73,0,0,0,0,13.45h19.8v33.48H39.27a6.73,6.73,0,0,0,0,13.45h19.8v34.57H39.27a6.73,6.73,0,0,0,0,13.45h19.8v34.56H39.27a6.73,6.73,0,0,0,0,13.45h19.8v33.48H39.27a6.73,6.73,0,0,0,0,13.45h19.8v34.56H39.27a6.73,6.73,0,0,0,0,13.45h19.8V435a6.73,6.73,0,0,0,6.73,6.73H472.73a6.73,6.73,0,0,0,0-13.45ZM418.35,126.68H397l21.31-30.21Zm-7.45-43-30.32,43H360.64L391,83.7Zm-57.14,0h20.75l-20.75,29.4ZM177.54,281,147.6,323.43H127.66L157.6,281Zm-56.21,0h19.81l-19.81,28.07ZM185.92,428.3H121.33V336.88h64.59Zm0-104.87H164.06l21.86-31Zm69.74-196.3-30.54,43.3H205.18l30.55-43.3Zm-56.29,0h19.9l-19.9,28.19ZM262.88,428.3H199.37V183.88h63.51Zm0-257.87h-21.3l21.3-30.19Zm70.71,5.87-29.76,42.17H283.89l29.76-42.17Zm-57.26,0h20.86l-20.86,29.56Zm64,252h-64V231.92h64Zm0-209.83h-20l20-28.37Z"/></g></svg>