<svg id="Layer_1" data-name="Layer 1" xmlns="http://www.w3.org/2000/svg" viewBox="0 0 512 512"><defs><style>.cls-1{fill:#e8e8e8;}.cls-2{fill:#1a3762;}</style></defs><title>samples</title><g id="Samplings"><path class="cls-1" d="M136.73,100.62v81.8h18.89L178.4,412.79h158l22.27-230.37h18.2v-81.8ZM326,280.66c-1.82,25.51-6.3,89.18-7.21,102.19l-.27,3.78H195.27l-.26-3.77-7.58-107.23-.24-3.28,3.17-.91a113.78,113.78,0,0,1,30.27-4.4c12.81,0,23.23,2.86,34.27,5.88,11.45,3.14,23.28,6.38,38.21,6.38,12.33,0,20.61-.85,27.69-2.84l5.56-1.57Z"/><path class="cls-2" d="M368.82,93.53H143.18a14.86,14.86,0,0,0-14.83,14.84v80.29h18.27L164.78,404a14.84,14.84,0,0,0,14.82,14.51H333.28A14.84,14.84,0,0,0,348.1,404l18.16-215.3h17.39V108.37A14.86,14.86,0,0,0,368.82,93.53Zm1.38,81.68H271a6.73,6.73,0,0,0,0,13.45h81.8L334.68,403.07l0,.56a1.41,1.41,0,0,1-1.38,1.39H179.6a1.41,1.41,0,0,1-1.38-1.39v-.28l-18.1-214.69h54.95a6.73,6.73,0,0,0,0-13.45H141.8V108.37a1.41,1.41,0,0,1,1.38-1.39H368.82a1.41,1.41,0,0,1,1.38,1.39ZM220.09,257.66a119.5,119.5,0,0,0-38.63,6.61l-4.66,1.78,8.44,119.48A10.8,10.8,0,0,0,196,396H316.64a10.8,10.8,0,0,0,10.78-10.49c.35-5,7.63-108.49,8.09-114.46l.84-10.92-10.12,4.19c-8.33,3.45-14.42,5.57-33.66,5.57-13.66,0-24.38-2.94-35.73-6C245.69,260.81,234.16,257.66,220.09,257.66Zm101.26,22.71c-1.81,25.51-6.29,89.18-7.21,102.2H198.52l-7.58-107.23a109,109,0,0,1,29.15-4.23c12.26,0,22.43,2.78,33.2,5.73,11.7,3.2,23.81,6.52,39.28,6.52C306.48,283.36,314.67,282.25,321.35,280.37Z"/></g></svg>