<svg id="Layer_1" data-name="Layer 1" xmlns="http://www.w3.org/2000/svg" viewBox="0 0 512 512"><defs><style>.cls-1{fill:#e8e8e8;}.cls-2{fill:#1a3762;}</style></defs><title>supports</title><g id="Supports"><path class="cls-1" d="M343.45,170.78a14.55,14.55,0,0,1,0,25.22ZM168.54,196a14.54,14.54,0,0,1,0-25.2ZM168,81.36a44,44,0,0,1,13-31.28l1-1,9.65,14.47a7.32,7.32,0,0,0,6.07,3.24H284A24.72,24.72,0,0,1,307.4,83.67a7.26,7.26,0,0,0,6.9,5h0a19,19,0,0,1,3.93.33,23.52,23.52,0,0,1,19.32,27.11L333,143.62l-19.91-29.86a7.31,7.31,0,0,0-6.06-3.25H179A43.83,43.83,0,0,1,168,81.36Zm29.42,176.91a114,114,0,0,1-14.32-55.2v-78h120l25.76,38.64v39.33h0a113.94,113.94,0,0,1-14.31,55.21A67,67,0,0,1,256,292.71h0A67,67,0,0,1,197.44,258.27ZM256,342.62l-36.44-20.81V298.7A81.49,81.49,0,0,0,256,307.29h0a81.45,81.45,0,0,0,36.43-8.6v23.12Zm13.18,25.94-3.87,11.61H246.67l-3.86-11.6L256,359.78Zm-27-17.06-25.32,16.88-9.14-36.58Zm62.15-19.69-9.14,36.56L269.85,351.5ZM241.4,468.29l6.67-73.55h15.84l6.69,73.55Z"/><path class="cls-2" d="M299.76,190.68a14.58,14.58,0,1,0-14.58-14.58A14.57,14.57,0,0,0,299.76,190.68Zm59.66,131.77-52.4-7V289.36a81.58,81.58,0,0,0,20.28-24,128.85,128.85,0,0,0,15.85-53.65,29.15,29.15,0,0,0,2.57-55.84L352,118.5a38.08,38.08,0,0,0-31.29-43.9l-1.34-.2A39.23,39.23,0,0,0,284,52.21H201.6L189.18,33.59A7.28,7.28,0,0,0,178,32.49l-7.29,7.28a58.88,58.88,0,0,0-2.13,80.93v34.47a29.15,29.15,0,0,0,.3,56.52,128.71,128.71,0,0,0,15.85,53.66,81.38,81.38,0,0,0,20.29,24v26.11l-52.41,7a65.79,65.79,0,0,0-56.9,65v94.19H416.33V387.47A65.81,65.81,0,0,0,359.42,322.45Zm-16-151.67a14.55,14.55,0,0,1,0,25.22ZM168.54,196a14.54,14.54,0,0,1,0-25.2ZM168,81.36a44,44,0,0,1,13-31.28l1-1,9.65,14.47a7.32,7.32,0,0,0,6.07,3.24H284A24.72,24.72,0,0,1,307.4,83.67a7.26,7.26,0,0,0,6.9,5h0a19,19,0,0,1,3.93.33,23.52,23.52,0,0,1,19.32,27.11L333,143.62l-19.91-29.86a7.31,7.31,0,0,0-6.06-3.25H179A43.83,43.83,0,0,1,168,81.36Zm29.42,176.91a114,114,0,0,1-14.32-55.2v-78h120l25.76,38.64v39.33h0a113.94,113.94,0,0,1-14.31,55.21A67,67,0,0,1,256,292.71h0A67,67,0,0,1,197.44,258.27ZM256,342.62l-36.44-20.81V298.7A81.49,81.49,0,0,0,256,307.29h0a81.45,81.45,0,0,0,36.43-8.6v23.12Zm13.18,25.94-3.87,11.61H246.67l-3.86-11.6L256,359.78Zm-27-17.06-25.32,16.88-9.14-36.58Zm62.15-19.69-9.14,36.56L269.85,351.5ZM226.76,468.29H168.57v-59H154v59H110.24V387.45a51.19,51.19,0,0,1,44.25-50.57l38.18-5.07,12.53,50.13a7.3,7.3,0,0,0,11.11,4.31l13.93-9.3L234,388.32Zm14.64,0,6.67-73.55h15.84l6.69,73.55Zm160.36,0h-43.7v-59H343.48v59H285.22l-7.27-80,3.79-11.39,13.94,9.3a7.31,7.31,0,0,0,4.05,1.22,7.07,7.07,0,0,0,2.61-.49,7.3,7.3,0,0,0,4.44-5l12.53-50.12,38.19,5.07a51.17,51.17,0,0,1,44.26,50.57ZM226.88,176.1a14.58,14.58,0,1,0-14.58,14.58A14.58,14.58,0,0,0,226.88,176.1Zm14.54,51h21.86V212.54h-12.2L263,170.83l-14-4-14.58,51a7.29,7.29,0,0,0,7,9.29Zm0,14.58v14.57H250a56.77,56.77,0,0,0,40.35-16.71L280,229.25A42.22,42.22,0,0,1,250,241.7Z"/></g></svg>