<svg id="Layer_1" data-name="Layer 1" xmlns="http://www.w3.org/2000/svg" viewBox="0 0 512 512"><defs><style>.cls-1{fill:#e8e8e8;}.cls-2{fill:#1a3762;}</style></defs><title>tickets</title><g id="Tickets"><path class="cls-1" d="M468.61,232.25h8.15V191.14h-9.07a19.55,19.55,0,0,1-19.54-19.54v-3.21a19.36,19.36,0,0,1,5.25-7.4l6.89-5.9-26.76-31.2-6.89,5.91a19.58,19.58,0,0,1-29.12-4.19c-5.34-8.14-3.46-19.35,4.38-26.08l6.18-5.3L381.32,63l-6.88,5.9a19.57,19.57,0,0,1-27.55-2.1l-9.07-10.56L219.61,157.69H63.85V180a19.56,19.56,0,0,1-19.54,19.54H35.24v41.1h9.07a19.57,19.57,0,0,1,19.38,22.14c-1.24,9.66-10,16.94-20.3,16.94H35.24v41.1h9.07A19.55,19.55,0,0,1,63.85,340.4v3.22A19.47,19.47,0,0,1,58.6,351l-6.89,5.9,26.77,31.2,6.88-5.91a19.61,19.61,0,0,1,15.47-4.5,19.37,19.37,0,0,1,13.65,8.69c5.34,8.14,3.46,19.35-4.37,26.06l-6.2,5.31L130.68,449l6.89-5.9a19.53,19.53,0,0,1,27.55,2.1l9,10.56L292.39,354.31H448.15V332a19.56,19.56,0,0,1,19.54-19.54h9.07v-41.1h-9.07a19.57,19.57,0,0,1-19.38-22.14C449.55,239.52,458.28,232.25,468.61,232.25Zm-61.1,88.61H104.59V189.47H407.51Z"/><path class="cls-2" d="M96.79,189.59V322.41a6.72,6.72,0,0,0,6.72,6.72h305a6.72,6.72,0,0,0,6.72-6.72V189.59a6.72,6.72,0,0,0-6.72-6.72H217a6.73,6.73,0,0,0,0,13.45h184.8V315.68H110.23V196.32h55.36a6.73,6.73,0,0,0,0-13.45H103.51A6.72,6.72,0,0,0,96.79,189.59ZM335.54,347.2H71v-6.8a26.67,26.67,0,0,0-26.64-26.65h-2V286.86h2a26.65,26.65,0,0,0,0-53.29h-2V206.68h2A26.67,26.67,0,0,0,71,180V164.8h76.73a6.73,6.73,0,0,0,0-13.45H64.24a6.72,6.72,0,0,0-6.73,6.72v22a13.21,13.21,0,0,1-13.19,13.2H35.63A6.72,6.72,0,0,0,28.9,200V240.3A6.72,6.72,0,0,0,35.63,247h8.69a13.2,13.2,0,0,1,0,26.4H35.63a6.72,6.72,0,0,0-6.73,6.72v40.34a6.72,6.72,0,0,0,6.73,6.72h8.69a13.21,13.21,0,0,1,13.19,13.2V344L48,351.57a6.72,6.72,0,0,0-.92,9.64l26.24,30.63a6.72,6.72,0,0,0,9.48.73l6.6-5.66a13.2,13.2,0,1,1,17.17,20L100,412.61a6.73,6.73,0,0,0-.74,9.48l26.25,30.63a6.72,6.72,0,0,0,9.48.73l6.6-5.65a13.17,13.17,0,0,1,18.6,1.44L169,459.51a6.72,6.72,0,0,0,9.48.73l116-99.42c.07-.05.12-.11.19-.17h40.86a6.73,6.73,0,0,0,0-13.45ZM174.83,445.65l-4.43-5.16a26.65,26.65,0,0,0-37.57-2.9l-1.49,1.28-17.5-20.42,1.49-1.28A26.65,26.65,0,0,0,80.66,376.7L79.17,378,64.32,360.65H274ZM476.37,265h-8.68a13.2,13.2,0,0,1,0-26.4h8.69a6.71,6.71,0,0,0,6.72-6.72V191.53a6.72,6.72,0,0,0-6.72-6.73h-8.69a13.21,13.21,0,0,1-13.19-13.2v-2.44l9.86-9a6.74,6.74,0,0,0,.56-9.34l-26.24-30.63a6.72,6.72,0,0,0-9.48-.73l-6.6,5.66a13.2,13.2,0,1,1-17.17-20L412,99.39a6.72,6.72,0,0,0,.73-9.48L386.5,59.28a6.72,6.72,0,0,0-9.48-.73l-6.6,5.65a13.19,13.19,0,0,1-18.61-1.44L343,52.49a6.72,6.72,0,0,0-9.48-.73L217.3,151.35H198.11a6.73,6.73,0,1,0,0,13.45H441v6.8a26.67,26.67,0,0,0,26.65,26.65h2v26.89h-2a26.65,26.65,0,1,0,0,53.29h2v26.89h-2A26.67,26.67,0,0,0,441,332V347.2H394.55a6.73,6.73,0,0,0,0,13.45h53.21a6.72,6.72,0,0,0,6.73-6.72V332a13.21,13.21,0,0,1,13.2-13.2h8.68A6.72,6.72,0,0,0,483.1,312V271.7A6.72,6.72,0,0,0,476.37,265ZM238,151.35l99.21-85,4.43,5.17a26.66,26.66,0,0,0,37.57,2.89l1.49-1.28,17.5,20.42-1.49,1.28a26.65,26.65,0,0,0,34.67,40.47l1.49-1.28,14.85,17.33Z"/></g></svg>