<svg id="Layer_1" data-name="Layer 1" xmlns="http://www.w3.org/2000/svg" viewBox="0 0 512 512"><defs><style>.cls-1{fill:#ededed;}.cls-2{fill:#1a3762;}</style></defs><title>users</title><g id="Users"><path class="cls-1" d="M279.94,140.65a4.75,4.75,0,0,1,2.38-.62,4.92,4.92,0,0,1,4.47,2.93l.38.87c2.75,6.36,9.35,21.58,18.35,28l2.2-22.14a18.25,18.25,0,0,0-13.82-19.51,4.89,4.89,0,0,1-3.72-4.75c0-12.1-18.58-14.64-34.17-14.64-44.56,0-61.83,35.9-66.82,49.66C230.27,165.3,266.06,148.42,279.94,140.65Zm-13.18,146H245.37a24.35,24.35,0,0,1-13.76-4.28V295a14.59,14.59,0,0,1-5.31,11.35,43.35,43.35,0,0,0,56.57,2.48c1-.77,1.89-1.59,2.79-2.44a14.62,14.62,0,0,1-5.24-11.34V282.43A24.4,24.4,0,0,1,266.76,286.64Zm111.8-56.47h.28l-.27-3.52v-5.57c0-.11,0-.23,0-.35v-5.8a7.62,7.62,0,0,0,0,15.24ZM432.2,279c-1.39.25-2.73.43-4.08.54s-2.61.18-3.91.18A44.61,44.61,0,0,1,409,277v14.4A11.39,11.39,0,0,1,399,302.82l-2.72.32a30.75,30.75,0,0,0,28,17.94h0a30.76,30.76,0,0,0,28-17.91l-2.7-.31a11.41,11.41,0,0,1-10.06-11.42V276.93A44.89,44.89,0,0,1,432.2,279ZM319.46,198.59a9.75,9.75,0,0,0-4.89-8.44V207A9.76,9.76,0,0,0,319.46,198.59Zm78.13,1.12H386.17v7.62h76.14v-8.62a45.14,45.14,0,0,1-16.18-9.81C431.34,194.39,414.25,199.71,397.59,199.71Zm80,22.84a7.64,7.64,0,0,0-7.62-7.62v11.43l-.29,3.81h.29A7.63,7.63,0,0,0,477.54,222.55Zm-28.47,19H449a20.93,20.93,0,0,1-20.9-20.86v-5.8h-4.26l-2.85,22.85h7.11v7.62H416.63a3.82,3.82,0,0,1-3.78-4.29l.6-4.84a20.8,20.8,0,0,1-13.87,5.32h-.12A20.78,20.78,0,0,1,387,237.5l0,.44a37.4,37.4,0,0,0,40.39,34c1.12-.1,2.23-.25,3.34-.44a38.05,38.05,0,0,0,30.62-34A20.85,20.85,0,0,1,449.07,241.59Zm-31.79,19h-.65V253h.65A22,22,0,0,0,433,246.51l5.38,5.38A29.6,29.6,0,0,1,417.28,260.62Zm-31.11-45.69v5.72A13.32,13.32,0,0,0,399.46,234h.11a13.29,13.29,0,0,0,13.25-13.31v-5.73H408a7.61,7.61,0,1,1-14.2,3.81,7.69,7.69,0,0,1,1-3.81Zm-3.8-30.45H371.6a11.44,11.44,0,0,0,10.77,7.62h15.22c18.51,0,38.53-7.56,48.15-11.18a3.8,3.8,0,0,1,4.1,1,37.73,37.73,0,0,0,12.47,8.68V176.87a15.24,15.24,0,0,0-15.23-15.22,3.83,3.83,0,0,1-3.41-2.11,10.07,10.07,0,0,0-8.91-5.51H371.6a11.44,11.44,0,0,0,10.77,7.62,3.8,3.8,0,1,1,0,7.6H371.6a11.43,11.43,0,0,0,10.77,7.62,3.81,3.81,0,0,1,0,7.61Zm-77.56,47.29V182.55c-12.33-5.38-20.42-21-24.85-30.84-14.32,7.39-41,18.57-72.65,19.3v60.48a24.42,24.42,0,0,0,6,16.32l21.08,24.1a14.59,14.59,0,0,0,11,5h21.37a14.65,14.65,0,0,0,11-5L298.82,248A24.36,24.36,0,0,0,304.81,231.77Zm-58.52-53.1,9.68,1.21-4.19,33.56h9.11v9.75H246.25a4.89,4.89,0,0,1-4.85-5.48ZM226.73,198.8a9.77,9.77,0,1,1,9.76-9.77A9.77,9.77,0,0,1,226.73,198.8Zm28.13,43.73H241.37v-9.77h13.49a41.51,41.51,0,0,0,18.49-4.37l4.37,8.73A51.27,51.27,0,0,1,254.86,242.53Zm25.55-43.73a9.77,9.77,0,1,1,9.77-9.77A9.77,9.77,0,0,1,280.41,198.8Zm181.9,16.13h-8.64a7.62,7.62,0,1,1-13.17,0h-4.84v5.72A13.45,13.45,0,0,0,449,234h.09a13.28,13.28,0,0,0,13.24-13.31ZM43.25,230.61l-.59-7.5q-3.82,1.42-7.7,2.61a7.64,7.64,0,0,0,7.11,4.89Zm97.32,72.76-9.21-1.14,13.17,29.61A3.81,3.81,0,0,1,141,337.2H119.27l2.62,10.51a3.78,3.78,0,0,1-2,4.31L91.56,366.21v9.06h57.08V347.61a43.81,43.81,0,0,1,12.14-30.24A26.65,26.65,0,0,0,140.57,303.37Zm-62.19,30,9.37,21.09,9.37-21.09ZM53.6,347.71l2.63-10.51H34.45A3.81,3.81,0,0,1,31,331.84l13.17-29.62-9.22,1.15a26.68,26.68,0,0,0-23.31,26.45v45.45H83.94v-9.06L55.59,352A3.81,3.81,0,0,1,53.6,347.71Zm309.79,27.56H371V359.15h-7.56Zm113.87-69.14-17.13-2-.56,1.3a38.38,38.38,0,0,1-35.31,23.29h0a38.35,38.35,0,0,1-35.3-23.29l-.58-1.34-17.18,2a26.61,26.61,0,0,0-19,12.35,43.85,43.85,0,0,1,11.24,29.14v4H371v-7.62h7.61v31.35h91.36V343.92h7.62v7.62h22.84v-19A26.75,26.75,0,0,0,477.26,306.13Zm.28,69.14h22.84V359.15H477.54ZM115.94,170a3.79,3.79,0,0,1,2.26,3.48c0,.12.31,13.79,13.48,34.26h1.75a15,15,0,0,1,3.81.49v-18a26.54,26.54,0,0,0-16.65-24.6,4.13,4.13,0,0,1-1.27-.84,36,36,0,0,0-25-10.31H87.75a53.22,53.22,0,0,0-38.19,16.88C39,182.69,33.74,198.74,34.21,218c39-12.44,77.23-46.92,77.63-47.27A3.79,3.79,0,0,1,115.94,170Zm-3.88,129.75a11.42,11.42,0,0,1-9-11.26v-7.35a43.86,43.86,0,0,1-30.52,0v7.38a11.41,11.41,0,0,1-9,11.23l11.56,26h25.5Zm2.34,29.8h20.79l-12.65-28.45-2.6-.33-24.4,54.9,18.23-9.11-3.07-12.27a3.81,3.81,0,0,1,3.7-4.74Zm19-91.35h-1.85l-.25,4a43.55,43.55,0,0,1-8.86,24.51l1.73,8.63c8.7-12.31,11.6-28.38,12.56-37.55A14.66,14.66,0,0,1,133.43,238.23ZM133,215.38,132,230.61h1.39a7.62,7.62,0,1,0,0-15.23ZM80,355.7l-24.4-54.9-2.59.33L40.31,329.58H61.1a3.81,3.81,0,0,1,3.69,4.74l-3.06,12.27ZM53,266.75a43.54,43.54,0,0,1-8.88-24.55l-.31-4H42.07a15.13,15.13,0,0,1-5.76-1.14,106.84,106.84,0,0,0,15.18,37.39ZM197.55,212V195a9.75,9.75,0,0,0,0,17ZM50.07,220.13l1.69,21.6a36.06,36.06,0,0,0,19.85,30.76h.88v.44a36.24,36.24,0,0,0,30.52,0v-.44h.89a36,36,0,0,0,19.83-30.63l1.81-29.57c-8.84-13.63-12.45-24.59-13.93-31.34a294.8,294.8,0,0,1-44.73,30.9,7.61,7.61,0,1,1-9.58,7.34,7.78,7.78,0,0,1,.46-2.61C55.23,217.83,52.66,219,50.07,220.13Zm60.52-8.56a7.62,7.62,0,1,1-7.61,7.62A7.62,7.62,0,0,1,110.59,211.57Zm-9.71,41.48a40.15,40.15,0,0,1-17.83,4.21H80.14v-7.62h2.91a32.38,32.38,0,0,0,14.42-3.4ZM73.64,231.72l11.42-11.41,5.38,5.38-8.13,8.14,7.55,5-4.22,6.33-11.42-7.61a3.8,3.8,0,0,1-1.68-2.79A3.84,3.84,0,0,1,73.64,231.72Z"/><path class="cls-2" d="M280.41,179.33a9.76,9.76,0,1,0,9.77,9.75A9.76,9.76,0,0,0,280.41,179.33ZM80.14,249.7v7.62h2.91a40,40,0,0,0,17.83-4.22l-3.41-6.81a32.39,32.39,0,0,1-14.42,3.41Zm174.72-16.88H241.37v9.76h13.49a51.4,51.4,0,0,0,22.86-5.4l-4.37-8.74A41.39,41.39,0,0,1,254.86,232.82Zm-28.13-53.49a9.76,9.76,0,1,0,9.76,9.75A9.76,9.76,0,0,0,226.73,179.33ZM85.64,245.25l4.22-6.33-7.55-5,8.13-8.13-5.38-5.39L73.64,231.78a3.81,3.81,0,0,0,.58,5.87ZM433,246.56a22.06,22.06,0,0,1-15.69,6.5h-.65v7.62h.65a29.61,29.61,0,0,0,21.07-8.74Zm-322.38-19.7a7.61,7.61,0,1,0-7.61-7.61A7.6,7.6,0,0,0,110.59,226.86Zm135.66-3.61h14.64v-9.76h-9.11L256,179.93l-9.68-1.21-4.89,39a4.89,4.89,0,0,0,4.85,5.49ZM508,382.48v-7.21h0V332.56a34.39,34.39,0,0,0-29.78-33.93l-27.78-3.27a3.82,3.82,0,0,1-3.35-3.83V273.31a45.6,45.6,0,0,0,22-35.48h.87a15.23,15.23,0,1,0,0-30.45V196h0v-19a22.88,22.88,0,0,0-20.59-22.74,17.43,17.43,0,0,0-14.54-7.71H367.14a3.8,3.8,0,0,0-3.81,3.79,19,19,0,0,0,3.82,11.43h0a3.81,3.81,0,0,0-3.81,3.8,19,19,0,0,0,3.82,11.43h0a3.81,3.81,0,0,0-3.81,3.81,19.07,19.07,0,0,0,15.23,18.65v8h0a15.23,15.23,0,1,0,0,30.45h.87l.06.79a44.63,44.63,0,0,0,15.84,30.55,46.2,46.2,0,0,0,6.07,4.32v18a3.79,3.79,0,0,1-3.34,3.8l-27.84,3.29a34.33,34.33,0,0,0-23.7,14.62,43.68,43.68,0,0,0-21.24-9l-30.85-4.1a4.9,4.9,0,0,1-4.25-4.93v-22.6l16-18.06a34.1,34.1,0,0,0,8.43-22.74V217.56a19.52,19.52,0,0,0,0-37.81v-.34l2.86-28.73a28.09,28.09,0,0,0-17.79-28.89C298,111.61,288.39,101.05,256,101.05c-61.66,0-77.78,61.63-77.94,62.26a4.87,4.87,0,0,0,3.93,6A130,130,0,0,0,197.55,171V184.6a19.52,19.52,0,0,0,0,37.86v9A34.13,34.13,0,0,0,206,254.28l15.87,18.16v22.7a4.9,4.9,0,0,1-4.26,4.89l-30.84,4.09a43.8,43.8,0,0,0-20.14,8.15,34.3,34.3,0,0,0-25.1-16.4L114,292.44a3.8,3.8,0,0,1-3.33-3.83V277.52a44.72,44.72,0,0,0,5.43-3.94l2.22,11.13a3.81,3.81,0,0,0,6.42,2c17.07-17.07,19.68-44.92,20.08-53.47a15.19,15.19,0,0,0,.08-20.19V190.27a34.13,34.13,0,0,0-20.71-31.35,43.61,43.61,0,0,0-29.89-12H87.75A60.93,60.93,0,0,0,44,166.23c-12.86,13.81-18.79,33.51-17.15,57A15.76,15.76,0,0,0,27,225a114.7,114.7,0,0,0,23.5,61.26,3.81,3.81,0,0,0,3,1.49,3.67,3.67,0,0,0,.86-.1,3.82,3.82,0,0,0,2.87-3l2.23-11.14a42.91,42.91,0,0,0,5.42,3.95v11.12a3.79,3.79,0,0,1-3.32,3.8L34,295.87a34.32,34.32,0,0,0-30,34v45.45H4v7.15H148.64v24.26h0V411h106.8a4.25,4.25,0,0,0,0-8.5h-58V352.54h-9.77v49.91H158.4V347.67A34.28,34.28,0,0,1,188,313.79l28.18-3.74a53.1,53.1,0,0,0,72.71,6.52,52.33,52.33,0,0,0,6.8-6.43L324,313.9a34.28,34.28,0,0,1,29.64,33.77v54.78H324.34V352.54h-9.76v49.91h-16.1a4.25,4.25,0,1,0,0,8.5h64.91v-8.5h0v-20ZM469.92,226.42V215a7.62,7.62,0,1,1,0,15.23h-.29ZM314.57,190.21a9.73,9.73,0,0,1,0,16.88ZM197.55,212a9.74,9.74,0,0,1,0-17Zm-77.61,88.83,2.6.33,12.65,28.46H114.4a3.8,3.8,0,0,0-3.7,4.72l3.07,12.27-18.23,9.11Zm4.26-25.4-1.73-8.64a43.43,43.43,0,0,0,8.86-24.5l.25-4h1.85a15.24,15.24,0,0,0,3.33-.37C135.8,247.08,132.9,263.14,124.2,275.46Zm16.85-52.4a7.62,7.62,0,0,1-7.62,7.6H132l.93-15.22h.46A7.62,7.62,0,0,1,141.05,223.06ZM49.56,171.41a53.22,53.22,0,0,1,38.19-16.88h6.53a36.07,36.07,0,0,1,25,10.3,4,4,0,0,0,1.27.85,26.53,26.53,0,0,1,16.65,24.6v18a15.42,15.42,0,0,0-3.81-.48h-1.75c-13.17-20.47-13.48-34.14-13.48-34.26a3.8,3.8,0,0,0-6.36-2.82c-.4.36-38.63,34.84-77.63,47.28C33.74,198.79,39,182.75,49.56,171.41Zm-6.9,51.75.59,7.5H42.07A7.62,7.62,0,0,1,35,225.77Q38.83,224.58,42.66,223.16Zm8.83,51.39a107,107,0,0,1-15.18-37.4,15.32,15.32,0,0,0,5.76,1.13h1.78l.31,4A43.51,43.51,0,0,0,53,266.81Zm.27-32.76-1.69-21.6c2.59-1.12,5.16-2.31,7.69-3.55a7.78,7.78,0,0,0-.46,2.61,7.61,7.61,0,1,0,9.58-7.35A292.62,292.62,0,0,0,111.61,181c1.48,6.76,5.09,17.73,13.93,31.34l-1.81,29.58a36,36,0,0,1-19.83,30.63H103V273a36.24,36.24,0,0,1-30.52,0v-.43h-.88A36.07,36.07,0,0,1,51.76,241.79Zm20.73,46.82v-7.38a44,44,0,0,0,30.52,0v7.35a11.43,11.43,0,0,0,9,11.26l-11.56,26H75l-11.56-26A11.41,11.41,0,0,0,72.49,288.61ZM55.56,300.86,80,355.76l-18.23-9.12,3.06-12.27a3.8,3.8,0,0,0-3.69-4.72H40.31L53,301.18Zm28.38,74.41H11.62v-45.4a26.7,26.7,0,0,1,23.31-26.45l9.22-1.14L31,331.91a3.81,3.81,0,0,0,3.47,5.35H56.23l-2.63,10.5a3.8,3.8,0,0,0,2,4.32l28.35,14.18Zm-5.56-41.82H97.12l-9.37,21.09Zm70.26,14.22v27.6H91.56v-9l28.35-14.18a3.78,3.78,0,0,0,2-4.32l-2.62-10.5H141a3.81,3.81,0,0,0,3.49-5.35l-13.17-29.63,9.21,1.15a26.66,26.66,0,0,1,20.21,14A43.86,43.86,0,0,0,148.64,347.67Zm40.55-187.19c5-13.77,22.26-49.68,66.82-49.68,15.59,0,34.17,2.55,34.17,14.64a4.88,4.88,0,0,0,3.72,4.75,18.27,18.27,0,0,1,13.82,19.51l-2.2,22.15c-9-6.39-15.6-21.6-18.35-28l-.38-.87a4.88,4.88,0,0,0-6.85-2.31C266.06,148.47,230.27,165.36,189.19,160.48Zm93.68,148.44a43.35,43.35,0,0,1-56.57-2.47,14.59,14.59,0,0,0,5.31-11.35V282.43a24.49,24.49,0,0,0,13.76,4.27h21.39a24.48,24.48,0,0,0,13.66-4.21v12.66a14.63,14.63,0,0,0,5.24,11.34C284.76,307.34,283.84,308.15,282.87,308.92Zm-5.14-37a14.69,14.69,0,0,1-11,5H245.38a14.63,14.63,0,0,1-11-5l-21.08-24.1a24.44,24.44,0,0,1-6-16.32V171.07c31.61-.73,58.33-11.92,72.65-19.3,4.43,9.81,12.52,25.45,24.85,30.83v49.23a24.33,24.33,0,0,1-6,16.24ZM371,375.27h-7.56V359.21H371Zm129.43,0H477.54V359.21h22.84ZM462.31,220.72A13.28,13.28,0,0,1,449.07,234H449a13.43,13.43,0,0,1-13.32-13.31V215h4.84a7.53,7.53,0,0,0-1,3.8,7.62,7.62,0,1,0,15.23,0,7.53,7.53,0,0,0-1-3.8h8.64Zm-83.75,9.51a7.62,7.62,0,0,1,0-15.23v5.79c0,.12,0,.23,0,.35v5.57l.27,3.52Zm-7-45.69h10.77a3.81,3.81,0,0,0,0-7.61,11.44,11.44,0,0,1-10.77-7.62h10.77a3.81,3.81,0,0,0,0-7.61,11.43,11.43,0,0,1-10.77-7.62h63.16a10.11,10.11,0,0,1,8.91,5.51,3.83,3.83,0,0,0,3.41,2.11,15.24,15.24,0,0,1,15.23,15.23V190.6a37.58,37.58,0,0,1-12.47-8.68,3.78,3.78,0,0,0-4.1-.94c-9.62,3.62-29.64,11.18-48.15,11.18H382.37A11.44,11.44,0,0,1,371.6,184.54Zm14.57,15.22h11.42c16.66,0,33.75-5.32,48.54-10.8a45,45,0,0,0,16.18,9.8v8.62H386.17Zm0,15.24h8.64a7.61,7.61,0,1,0,14.2,3.8,7.52,7.52,0,0,0-1-3.8h4.83v5.72A13.28,13.28,0,0,1,399.57,234h-.11a13.31,13.31,0,0,1-13.29-13.31Zm.91,23,0-.43a20.77,20.77,0,0,0,12.42,4.08h.12a20.65,20.65,0,0,0,13.87-5.32l-.6,4.85a3.81,3.81,0,0,0,3.78,4.28h11.42v-7.62h-7.11L423.79,215h4.26v5.79A20.93,20.93,0,0,0,449,241.64h.12a20.78,20.78,0,0,0,12.36-4.07,38,38,0,0,1-30.62,34c-1.11.2-2.22.35-3.34.44A37.4,37.4,0,0,1,387.08,238ZM399,302.88A11.4,11.4,0,0,0,409,291.49v-14.4a44.84,44.84,0,0,0,15.2,2.65c1.3,0,2.6-.05,3.91-.17s2.69-.29,4.08-.55a44.86,44.86,0,0,0,7.27-2V291.5a11.41,11.41,0,0,0,10.06,11.42l2.7.32a30.77,30.77,0,0,1-28,17.9h0a30.76,30.76,0,0,1-28-17.95Zm-46.81,15.63a26.59,26.59,0,0,1,19-12.36l17.18-2,.58,1.35a38.35,38.35,0,0,0,35.3,23.27h0a38.37,38.37,0,0,0,35.31-23.27l.56-1.32,17.13,2a26.74,26.74,0,0,1,23.12,26.37v19H477.54V344h-7.62v31.29H378.56V344H371v7.62h-7.56v-3.94A43.86,43.86,0,0,0,352.15,318.51Z"/></g></svg>