<svg xmlns="http://www.w3.org/2000/svg" viewBox="0 0 426 426"><title>worm</title><g id="Layer_2" data-name="Layer 2"><path d="M381.44,82a97.35,97.35,0,0,0-29.65-44.21c10.39.66,17.43,5.86,21.67,12.88,0,0,.42-12.71-7.08-17.29-5.44-3.33-12.84.47-16.51,2.81-32-26.11-77.8-32.4-108.48-24.17a89.65,89.65,0,0,0-58.73,49.27c-5.55,12.61-11.39,34.61-7.62,67.79,2.75,24.22,7,44.24,13,61.19,9.36,26.57,16,56.32,16.91,75.78.57,11.92-4.17,20.54-7.62,26.84a42.47,42.47,0,0,0-3.15,6.49c-8.06-.54-15.52-3.09-25.5-6.53l-3.35-1.15c-13.83-4.72-46.21-15.77-68.69,21.56-1.38,2.28-2.67,4.47-3.91,6.57-9.1,15.43-14.59,24.74-26.19,26.54-5.52.86-9-.91-23-8.51l-.2-.11c-7.25-3.93-14.44-3.62-19.74.86-5.76,4.87-7.74,13.66-4.92,21.87a83.07,83.07,0,0,0,29.92,38.84c21.14,14.72,40.13,14.19,61.58-1.72,3.09-2.3,6.13-4.85,9.07-7.33,9.22-7.77,17.94-15.1,28.73-15.39,9.13-.25,21.2,7.49,34,15.68,10.83,6.92,23.11,14.77,35.9,19.35a70.7,70.7,0,0,0,24,4.25c17.52,0,35.72-6.58,55-19.82,18.09-12.4,27.08-35.2,30.27-45.1,12.36-15,15.4-37.08,10.23-72.12-3.43-23.21-7.83-36.78-12.93-52.5-2.83-8.74-5.75-17.75-8.86-29.44,19.53-5.76,45.94-21.2,60.44-47.5C387.06,127.66,388.93,105,381.44,82ZM274.2,78.71c4.35-.63,8.85,5.54,10.05,13.78s-1.37,15.44-5.73,16.07-8.85-5.54-10-13.78S269.84,79.34,274.2,78.71ZM249.28,56.08c6.67-4.58,20.63-.42,20.63-.42C256.78,60.45,251.16,64,247,75.25,247,75.25,242.61,60.66,249.28,56.08ZM316.4,246.86a34.21,34.21,0,0,0,5.9-8.43A253.48,253.48,0,0,1,331.2,278c4.85,32.85,2.29,53.37-8.63,66.94l-.58.69c-.5.59-1,1.17-1.52,1.72l-.09.09c-.52.56-1.05,1.1-1.58,1.61-9.12,8.72-24,14-40.85,14.47a89.46,89.46,0,0,1-52.34-15.22L224,347.17l-.72-.51-.8-.58-1-.77-.08-.05C207.62,335,194.5,319.86,200,301.59a34.85,34.85,0,0,1,2.78-5.7c3.59-6.56,9-16.46,8.39-30.14A182.67,182.67,0,0,0,208.6,244c11,8.19,31.19,20,57.21,21.45,1.23.06,2.46.1,3.69.1C287.5,265.58,305.59,258.43,316.4,246.86Zm23.12-149c-4.34.63-8.8-5.37-10-13.41s1.4-15.06,5.74-15.69,8.79,5.38,10,13.42S343.85,97.21,339.52,97.83Zm-29.31,173.3c-1.73-5.24-6.73-8.31-11.18-6.84s-6.66,6.9-4.94,12.14c1.53,4.64,5.63,7.57,9.64,7.16,1.21,18.39-.89,32.24-5.48,40.13,0,0,13.54,19.9,17,23.75,7.71-8.65,10.52-21.15,10.62-29.69-2-3.82-15-28.28-18.75-35.43C310.29,280.18,311.67,275.59,310.21,271.13Z"/></g></svg>